<svg aria-hidden="true" style="position: absolute; width: 0; height: 0; overflow: hidden;" version="1.1" xmlns="http://www.w3.org/2000/svg" xmlns:xlink="http://www.w3.org/1999/xlink">
<defs>
<symbol id="icon-customers-company" viewBox="0 0 32 32">
<path fill="#8e8f99" style="fill: var(--color1, #8e8f99)" d="M4.953 30.344c0.012 0 0.023 0.003 0.033 0.007 0.011 0.004 0.021 0.010 0.029 0.017l-0-0 0.16 0.151c-0.126 0.122-0.276 0.219-0.442 0.283l-0.009 0.003c-0.204 0.073-0.422 0.108-0.641 0.103-0.010 0-0.022 0-0.034 0-0.204 0-0.4-0.035-0.581-0.1l0.012 0.004c-0.175-0.063-0.326-0.155-0.454-0.271l0.001 0.001c-0.124-0.115-0.223-0.255-0.29-0.411l-0.003-0.008c-0.065-0.154-0.103-0.333-0.103-0.521 0-0.005 0-0.011 0-0.016v0.001c-0-0.005-0-0.011-0-0.017 0-0.189 0.041-0.368 0.114-0.529l-0.003 0.008c0.070-0.156 0.176-0.298 0.311-0.418 0.136-0.117 0.296-0.21 0.471-0.27l0.010-0.003c0.179-0.061 0.385-0.096 0.6-0.096 0.007 0 0.014 0 0.022 0h-0.001c0.196-0.004 0.393 0.026 0.576 0.087 0.159 0.060 0.305 0.141 0.432 0.242l-0.135 0.161c-0.010 0.012-0.021 0.021-0.034 0.029l-0.001 0c-0.013 0.008-0.030 0.013-0.047 0.013-0.003 0-0.005-0-0.008-0l0 0c-0.022-0.001-0.041-0.008-0.059-0.018l0.001 0-0.073-0.043-0.1-0.055c-0.092-0.044-0.199-0.078-0.31-0.096l-0.007-0.001c-0.066-0.011-0.142-0.017-0.219-0.017-0.007 0-0.014 0-0.021 0h0.001c-0.005-0-0.010-0-0.016-0-0.154 0-0.302 0.026-0.439 0.075l0.009-0.003c-0.135 0.047-0.251 0.115-0.35 0.203l0.001-0.001c-0.1 0.094-0.177 0.204-0.227 0.323-0.052 0.121-0.082 0.263-0.082 0.411 0 0.005 0 0.010 0 0.015v-0.001c-0 0.005-0 0.011-0 0.016 0 0.15 0.030 0.293 0.085 0.423l-0.003-0.007c0.103 0.245 0.303 0.433 0.55 0.518l0.006 0.002c0.131 0.047 0.271 0.070 0.413 0.068 0.082 0.001 0.164-0.004 0.245-0.014 0.204-0.020 0.386-0.101 0.532-0.222l-0.002 0.001c0.021-0.017 0.047-0.027 0.076-0.028h0zM9.59 29.585c0.003 0.182-0.034 0.364-0.108 0.534-0.072 0.164-0.174 0.302-0.301 0.413l-0.001 0.001c-0.134 0.118-0.295 0.211-0.474 0.271-0.182 0.061-0.392 0.096-0.61 0.096s-0.428-0.035-0.624-0.1l0.014 0.004c-0.182-0.063-0.34-0.156-0.474-0.274l0.002 0.001c-0.128-0.114-0.231-0.253-0.302-0.41l-0.003-0.008c-0.069-0.158-0.109-0.341-0.109-0.535s0.040-0.377 0.112-0.543l-0.003 0.009c0.068-0.156 0.172-0.298 0.305-0.42 0.135-0.114 0.295-0.204 0.472-0.262 0.393-0.131 0.828-0.131 1.22 0 0.178 0.062 0.34 0.154 0.473 0.273 0.253 0.226 0.412 0.553 0.412 0.918 0 0.011-0 0.022-0 0.034l0-0.002zM9.168 29.585c0.004-0.145-0.022-0.291-0.076-0.429-0.098-0.249-0.298-0.439-0.548-0.521l-0.006-0.002c-0.132-0.045-0.285-0.070-0.444-0.070s-0.311 0.026-0.454 0.073l0.010-0.003c-0.132 0.046-0.245 0.115-0.34 0.203l0.001-0.001c-0.093 0.087-0.167 0.194-0.215 0.314l-0.002 0.006c-0.102 0.28-0.102 0.579 0 0.858 0.045 0.119 0.119 0.228 0.217 0.321 0.095 0.087 0.211 0.156 0.34 0.201 0.286 0.092 0.601 0.092 0.887 0 0.129-0.044 0.245-0.113 0.339-0.201 0.097-0.093 0.169-0.203 0.215-0.321 0.054-0.138 0.080-0.284 0.076-0.429zM12.754 30.036l0.041 0.096c0.016-0.034 0.031-0.065 0.047-0.096 0.015-0.033 0.033-0.064 0.052-0.095l1.025-1.593c0.020-0.028 0.039-0.045 0.058-0.051s0.044-0.008 0.069-0.008c0.006 0 0.011 0 0.017 0l-0.001-0h0.303v2.591h-0.359v-1.985c-0.001-0.013-0.001-0.029-0.001-0.045s0.001-0.031 0.002-0.047l-0 0.002-1.032 1.615c-0.014 0.025-0.035 0.045-0.060 0.059l-0.001 0c-0.025 0.014-0.055 0.022-0.087 0.022-0 0-0.001 0-0.001 0h-0.058c-0.001 0-0.002 0-0.002 0-0.032 0-0.061-0.008-0.087-0.022l0.001 0c-0.025-0.013-0.046-0.033-0.059-0.057l-0-0.001-1.062-1.626v2.080h-0.348v-2.586h0.303c0.004-0 0.009-0 0.013-0 0.025 0 0.050 0.003 0.073 0.009l-0.002-0c0.024 0.010 0.043 0.027 0.056 0.049l0 0.001 1.047 1.595c0.021 0.029 0.039 0.061 0.053 0.093zM16.615 29.907v0.97h-0.401v-2.588h0.895c0.169-0.003 0.338 0.016 0.5 0.057 0.13 0.031 0.25 0.086 0.353 0.161 0.086 0.067 0.154 0.152 0.199 0.25l0.002 0.004c0.047 0.105 0.071 0.217 0.068 0.331 0 0.003 0 0.008 0 0.012 0 0.236-0.114 0.446-0.289 0.577l-0.002 0.001c-0.101 0.076-0.22 0.135-0.349 0.17l-0.007 0.002c-0.156 0.042-0.319 0.063-0.483 0.060l-0.486-0.007zM16.615 29.629h0.486c0.105 0.001 0.211-0.012 0.311-0.040 0.086-0.025 0.161-0.063 0.227-0.113l-0.002 0.001c0.113-0.090 0.185-0.228 0.185-0.383 0-0.002 0-0.004-0-0.006v0c0.001-0.008 0.001-0.017 0.001-0.026 0-0.067-0.015-0.131-0.043-0.187l0.001 0.003c-0.034-0.070-0.081-0.13-0.139-0.176l-0.001-0.001c-0.134-0.089-0.299-0.141-0.476-0.141-0.022 0-0.044 0.001-0.066 0.002l0.003-0h-0.486v1.067zM22.011 30.881h-0.318c-0.002 0-0.004 0-0.006 0-0.031 0-0.059-0.009-0.083-0.024l0.001 0c-0.022-0.015-0.040-0.035-0.052-0.059l-0-0.001-0.273-0.626h-1.372l-0.283 0.625c-0.011 0.024-0.029 0.044-0.050 0.058l-0 0c-0.024 0.016-0.054 0.026-0.086 0.026-0.002 0-0.003-0-0.005-0h-0.317l1.204-2.591h0.417l1.221 2.591zM20.023 29.919h1.132l-0.478-1.055c-0.032-0.067-0.063-0.148-0.088-0.232l-0.003-0.012-0.046 0.135c-0.015 0.041-0.030 0.079-0.044 0.109l-0.474 1.055zM23.745 28.301c0.024 0.011 0.044 0.027 0.059 0.046l0 0 1.757 1.953v-2.012h0.359v2.591h-0.201c-0.002 0-0.005 0-0.008 0-0.027 0-0.053-0.005-0.076-0.015l0.001 0c-0.025-0.013-0.046-0.029-0.064-0.049l-0-0-1.754-1.952c0.001 0.013 0.001 0.029 0.001 0.045s-0.001 0.031-0.002 0.047l0-0.002v1.926h-0.359v-2.591h0.212c0.025-0.001 0.049 0.003 0.073 0.012zM28.88 29.85v1.029h-0.401v-1.029l-1.11-1.561h0.359c0.003-0 0.006-0 0.009-0 0.029 0 0.055 0.008 0.078 0.022l-0.001-0c0.022 0.017 0.040 0.036 0.054 0.058l0.695 1.007c0.048 0.066 0.089 0.142 0.12 0.223l0.002 0.007 0.052-0.111c0.020-0.041 0.043-0.080 0.068-0.119l0.685-1.014c0.015-0.021 0.032-0.039 0.051-0.055l0-0c0.022-0.016 0.050-0.026 0.079-0.026 0.003 0 0.005 0 0.007 0h0.363l-1.113 1.568zM12.555 23.94c0.175 0.019 0.351 0.034 0.53 0.048 2.708-1.036 5-2.729 6.588-4.872s2.401-4.636 2.339-7.171l-2.985-2.551c0.607 2.699 0.323 5.489-0.82 8.058-1.143 2.568-3.1 4.815-5.652 6.487z"></path>
<path fill="#8e8f99" style="fill: var(--color1, #8e8f99)" d="M11.489 23.821l0.080 0.014c2.727-1.667 4.807-3.994 5.969-6.681s1.355-5.61 0.552-8.392l-4.252-3.633c1.72 2.986 2.412 6.328 1.996 9.636s-1.923 6.45-4.345 9.056zM25.909 14.94c-0.722 2.785-2.477 5.297-5.003 7.164-0.688 0.515-1.467 1-2.286 1.416l-0.091 0.042c2.057-0.516 3.948-1.43 5.526-2.669s2.803-2.772 3.578-4.48l-1.724-1.472z"></path>
<path fill="#8e8f99" style="fill: var(--color1, #8e8f99)" d="M25.233 14.529l-2.455-2.097c-0.047 2.392-0.843 4.729-2.305 6.769s-3.537 3.708-6.009 4.831h0.012c0.551 0 1.101-0.028 1.648-0.084 2.311-0.806 4.351-2.087 5.94-3.731s2.678-3.598 3.168-5.687zM11.844 3.597l-2.928-2.506c-2.618 0.865-4.871 2.384-6.461 4.361-1.592 1.976-2.448 4.316-2.455 6.715 0.009 2.649 1.054 5.222 2.967 7.308s4.585 3.567 7.594 4.21c2.687-2.796 4.26-6.252 4.49-9.865s-0.893-7.193-3.207-10.223zM32 14.144c-0.011-3.145-1.477-6.157-4.080-8.38-2.601-2.223-6.128-3.476-9.808-3.486-0.009-0-0.020-0-0.031-0-1.767 0-3.466 0.289-5.053 0.823l0.112-0.033 17.933 15.322c0.584-1.247 0.925-2.707 0.927-4.247v-0.001z"></path>
</symbol>
<symbol id="icon-customers-tag-line" viewBox="0 0 32 32">
<path fill="#8e8f99" style="fill: var(--color1, #8e8f99)" d="M16.18 15.64c-0.13-0.168-0.209-0.381-0.209-0.613 0-0.023 0.001-0.045 0.002-0.068l-0 0.003v-0.983c0-0.301 0.068-0.53 0.205-0.687s0.372-0.235 0.705-0.234c0.313 0 0.535 0.067 0.667 0.2 0.143 0.17 0.213 0.378 0.197 0.588v0.232h-0.56v-0.234c0.002-0.077-0.003-0.153-0.016-0.229-0.009-0.055-0.038-0.103-0.079-0.136l-0-0c-0.050-0.034-0.112-0.054-0.179-0.054-0.009 0-0.017 0-0.025 0.001l0.001-0c-0.007-0.001-0.016-0.001-0.025-0.001-0.070 0-0.136 0.021-0.19 0.057l0.001-0.001c-0.046 0.037-0.079 0.089-0.092 0.148l-0 0.002c-0.014 0.067-0.022 0.145-0.022 0.224 0 0.007 0 0.014 0 0.020v-0.001 1.193c-0.001 0.013-0.002 0.029-0.002 0.045 0 0.106 0.027 0.206 0.075 0.293l-0.002-0.003c0.029 0.036 0.067 0.064 0.11 0.081l0.002 0.001c0.045 0.017 0.095 0.024 0.145 0.019 0.072 0.005 0.143-0.014 0.198-0.054 0.043-0.036 0.073-0.086 0.083-0.144l0-0.001c0.013-0.079 0.019-0.159 0.017-0.239v-0.242h0.56v0.221c0.001 0.017 0.002 0.037 0.002 0.057 0 0.213-0.074 0.408-0.197 0.562l0.001-0.002c-0.128 0.146-0.347 0.219-0.67 0.219s-0.565-0.078-0.704-0.24zM18.511 15.65c-0.141-0.153-0.212-0.376-0.212-0.671v-1.034c0-0.292 0.071-0.513 0.212-0.663s0.378-0.225 0.709-0.224c0.329 0 0.564 0.075 0.706 0.224 0.142 0.15 0.213 0.371 0.213 0.663v1.034c0 0.292-0.072 0.516-0.215 0.67s-0.378 0.231-0.704 0.231-0.567-0.078-0.709-0.23zM19.481 15.402c0.051-0.096 0.074-0.201 0.067-0.306v-1.266c0.001-0.010 0.001-0.022 0.001-0.033 0-0.097-0.025-0.189-0.069-0.269l0.001 0.003c-0.030-0.037-0.068-0.065-0.112-0.082l-0.002-0.001c-0.032-0.013-0.070-0.020-0.11-0.020-0.013 0-0.027 0.001-0.040 0.003l0.002-0c-0.011-0.001-0.024-0.002-0.037-0.002-0.040 0-0.078 0.007-0.113 0.021l0.002-0.001c-0.046 0.017-0.085 0.046-0.115 0.082l-0 0c-0.051 0.094-0.074 0.197-0.067 0.3v1.272c-0.007 0.105 0.016 0.21 0.067 0.306 0.033 0.032 0.073 0.058 0.118 0.076 0.043 0.017 0.092 0.027 0.144 0.027s0.101-0.010 0.146-0.028l-0.003 0.001c0.045-0.018 0.085-0.044 0.118-0.076v-0.006zM20.813 13.088h0.603l0.453 1.908 0.463-1.908h0.587l0.059 2.754h-0.434l-0.046-1.914-0.447 1.914h-0.348l-0.464-1.921-0.043 1.921h-0.438l0.054-2.754zM23.654 13.088h0.939c0.541 0 0.811 0.261 0.811 0.782 0 0.499-0.285 0.749-0.854 0.748h-0.32v1.224h-0.579l0.003-2.754zM24.456 14.265c0.057 0.006 0.115 0.002 0.17-0.014s0.106-0.040 0.148-0.074c0.054-0.073 0.086-0.164 0.086-0.263 0-0.017-0.001-0.033-0.003-0.050l0 0.002c0-0.009 0.001-0.021 0.001-0.032 0-0.078-0.010-0.153-0.030-0.224l0.001 0.006c-0.009-0.029-0.024-0.055-0.043-0.076l0 0c-0.020-0.023-0.045-0.041-0.072-0.055l-0.001-0.001c-0.067-0.028-0.145-0.045-0.227-0.045-0.011 0-0.022 0-0.033 0.001l0.002-0h-0.225v0.823h0.225zM26.24 13.088h0.622l0.639 2.754h-0.54l-0.126-0.635h-0.555l-0.13 0.635h-0.548l0.639-2.754zM26.772 14.888l-0.217-1.156-0.217 1.156h0.433zM28.016 13.088h0.406l0.776 1.571v-1.571h0.481v2.754h-0.386l-0.781-1.64v1.64h-0.497l0.001-2.754zM30.806 14.792l-0.645-1.7h0.544l0.394 1.092 0.37-1.092h0.532l-0.638 1.7v1.050h-0.556v-1.050zM17.075 17.046v0.144h-0.473v1.119h-0.198v-1.119h-0.476v-0.144h1.146zM18.557 18.309h-0.153c-0.001 0-0.003 0-0.004 0-0.014 0-0.028-0.005-0.039-0.012l0 0c-0.011-0.007-0.020-0.017-0.025-0.029l-0-0-0.137-0.3h-0.656l-0.137 0.3c-0.004 0.013-0.011 0.025-0.020 0.034v0c-0.011 0.008-0.025 0.012-0.039 0.012-0.001 0-0.003-0-0.004-0h-0.153l0.58-1.263h0.202l0.587 1.258zM17.598 17.841h0.547l-0.232-0.514c-0.015-0.032-0.030-0.072-0.042-0.113l-0.002-0.006c-0.008 0.024-0.015 0.047-0.022 0.067l-0.021 0.053-0.229 0.513zM19.556 18.186c0.036 0.002 0.073 0.002 0.109 0 0.031-0.003 0.062-0.008 0.093-0.015 0.033-0.007 0.061-0.015 0.088-0.025l-0.005 0.002c0.026-0.009 0.051-0.020 0.078-0.031v-0.284h-0.232c-0.001 0-0.002 0-0.003 0-0.005 0-0.010-0.001-0.015-0.002l0 0c-0.006-0.002-0.010-0.004-0.014-0.008l0 0c-0.004-0.003-0.007-0.006-0.009-0.010l-0-0c-0.002-0.003-0.003-0.007-0.003-0.012 0-0 0-0.001 0-0.001v0-0.097h0.45v0.484c-0.070 0.044-0.152 0.079-0.238 0.102l-0.006 0.001c-0.048 0.012-0.096 0.020-0.145 0.026-0.051 0.005-0.11 0.008-0.169 0.008-0 0-0 0-0 0v0c-0.002 0-0.004 0-0.007 0-0.102 0-0.2-0.017-0.292-0.049l0.006 0.002c-0.089-0.031-0.166-0.076-0.233-0.133l0.001 0.001c-0.062-0.055-0.113-0.122-0.148-0.196l-0.002-0.004c-0.034-0.075-0.053-0.162-0.053-0.254 0-0.003 0-0.006 0-0.009v0c-0-0.002-0-0.005-0-0.008 0-0.092 0.019-0.18 0.054-0.26l-0.002 0.004c0.033-0.075 0.084-0.143 0.15-0.2s0.145-0.101 0.232-0.131c0.099-0.032 0.205-0.048 0.311-0.047 0.054 0 0.108 0.003 0.161 0.011 0.047 0.007 0.093 0.017 0.138 0.032 0.041 0.013 0.080 0.030 0.116 0.050s0.069 0.042 0.101 0.066l-0.055 0.078c-0.005 0.007-0.011 0.013-0.019 0.017l-0 0c-0.008 0.004-0.017 0.007-0.026 0.007h-0c-0.013-0-0.026-0.004-0.036-0.010l0 0c-0.023-0.011-0.042-0.021-0.060-0.032l0.003 0.002c-0.022-0.012-0.048-0.024-0.074-0.033l-0.004-0.001c-0.029-0.011-0.065-0.020-0.102-0.027l-0.005-0.001c-0.042-0.007-0.090-0.011-0.139-0.011-0.003 0-0.005 0-0.008 0h0c-0.002-0-0.004-0-0.007-0-0.078 0-0.152 0.013-0.222 0.037l0.005-0.001c-0.066 0.023-0.123 0.057-0.171 0.1l0-0c-0.048 0.046-0.085 0.099-0.108 0.157-0.025 0.063-0.039 0.135-0.039 0.211s0.014 0.148 0.040 0.215l-0.001-0.004c0.026 0.059 0.065 0.113 0.116 0.159 0.048 0.043 0.106 0.077 0.169 0.1 0.074 0.022 0.152 0.030 0.229 0.025zM21.404 18.165h0.633v0.144h-0.827v-1.263h0.198l-0.005 1.119zM22.695 18.309h-0.198v-1.263h0.198v1.263zM23.432 17.052c0.012 0.006 0.022 0.014 0.031 0.023l0 0 0.847 0.952c-0.001-0.007-0.001-0.015-0.001-0.022s0-0.016 0.001-0.023l-0 0.001v-0.941h0.173v1.268h-0.1c-0.002 0-0.004 0-0.006 0-0.013 0-0.026-0.003-0.037-0.008l0.001 0c-0.012-0.006-0.023-0.014-0.031-0.024l-0-0-0.846-0.951v0.982h-0.166v-1.263h0.103c0.011 0 0.022 0.002 0.033 0.006zM25.942 17.046v0.139h-0.703v0.417h0.569v0.134h-0.569v0.431h0.702v0.139h-0.907v-1.26h0.907zM5.173 9.246l8.801 2.156v7.556l-8.801-2.155v-7.557zM4.608 8.602v8.568l9.928 2.433v-8.567l-9.928-2.434z"></path>
<path fill="#8e8f99" style="fill: var(--color1, #8e8f99)" d="M9.93 23.58l-9.93-2.435v-8.567l9.93 2.434v8.569z"></path>
<path fill="#8e8f99" style="fill: var(--color1, #8e8f99)" d="M4.773 9.149l8.686 2.129-3.694 3.188-8.687-2.13 3.695-3.187zM4.608 8.602l-4.608 3.976 9.93 2.434 4.607-3.976-9.928-2.435zM10.489 23.098l4.048-3.494-4.049-0.993v4.488z"></path>
</symbol>
<symbol id="icon-customers-brand" viewBox="0 0 32 32">
<path fill="#8e8f99" style="fill: var(--color1, #8e8f99)" d="M2.434 23.808c0.124 0.139 0.191 0.313 0.188 0.492 0.006 0.116-0.017 0.233-0.067 0.34s-0.127 0.203-0.224 0.28c-0.212 0.144-0.474 0.229-0.756 0.229-0.031 0-0.062-0.001-0.093-0.003l0.004 0h-1.486v-3.115h1.455c0.026-0.002 0.055-0.003 0.086-0.003 0.267 0 0.516 0.078 0.726 0.213l-0.005-0.003c0.094 0.071 0.169 0.16 0.217 0.262s0.071 0.211 0.065 0.322c0.009 0.172-0.051 0.34-0.169 0.476-0.115 0.123-0.266 0.21-0.437 0.243l-0.005 0.001c0.197 0.032 0.375 0.127 0.502 0.266zM0.691 23.338h0.622c0.141 0.010 0.281-0.027 0.395-0.103 0.045-0.037 0.082-0.083 0.106-0.136l0.001-0.002c0.018-0.040 0.028-0.086 0.028-0.135 0-0.011-0.001-0.022-0.002-0.033l0 0.001c0.001-0.008 0.001-0.017 0.001-0.026 0-0.050-0.011-0.098-0.030-0.141l0.001 0.002c-0.024-0.055-0.060-0.102-0.103-0.139l-0.001-0c-0.101-0.067-0.224-0.107-0.357-0.107-0.018 0-0.035 0.001-0.053 0.002l0.002-0h-0.613v0.817zM1.77 24.533c0.049-0.038 0.087-0.085 0.114-0.14l0.001-0.002c0.021-0.044 0.033-0.095 0.033-0.15 0-0.008-0-0.017-0.001-0.025l0 0.001c0-0.007 0.001-0.014 0.001-0.022 0-0.056-0.013-0.109-0.036-0.156l0.001 0.002c-0.028-0.058-0.068-0.106-0.116-0.143l-0.001-0.001c-0.107-0.071-0.239-0.114-0.381-0.114-0.014 0-0.029 0-0.043 0.001l0.002-0h-0.653v0.857h0.661c0.149 0.008 0.296-0.030 0.418-0.108zM5.409 25.148l-0.81-1.218h-0.305v1.217h-0.696v-3.115h1.318c0.028-0.002 0.062-0.003 0.095-0.003 0.309 0 0.595 0.1 0.827 0.271l-0.004-0.003c0.184 0.169 0.296 0.392 0.313 0.628s-0.058 0.47-0.215 0.66c-0.163 0.168-0.385 0.28-0.629 0.317l0.862 1.244h-0.757zM4.295 23.506h0.569c0.396 0 0.593-0.157 0.593-0.472 0-0.008 0.001-0.016 0.001-0.025 0-0.059-0.012-0.115-0.034-0.166l0.001 0.003c-0.027-0.063-0.065-0.117-0.113-0.161l-0-0c-0.108-0.080-0.245-0.128-0.392-0.128-0.020 0-0.039 0.001-0.058 0.003l0.003-0h-0.577l0.007 0.948zM9.216 24.521h-1.388l-0.245 0.627h-0.73l1.275-3.080h0.789l1.269 3.080h-0.73l-0.24-0.627zM9.030 24.049l-0.507-1.315-0.507 1.315h1.014zM13.98 25.148h-0.691l-1.55-2.118v2.118h-0.69v-3.115h0.69l1.55 2.13v-2.13h0.691v3.115zM17.925 24.402c-0.151 0.24-0.364 0.429-0.616 0.546l-0.009 0.004c-0.301 0.137-0.635 0.204-0.972 0.196h-1.231v-3.115h1.231c0.017-0 0.037-0.001 0.057-0.001 0.331 0 0.645 0.071 0.929 0.198l-0.014-0.006c0.265 0.12 0.483 0.31 0.625 0.544 0.142 0.253 0.216 0.533 0.216 0.817-0.001 0.3-0.081 0.582-0.221 0.825l0.004-0.008zM17.134 24.328c0.187-0.192 0.304-0.454 0.306-0.743v-0c-0.002-0.289-0.119-0.551-0.306-0.743l0 0c-0.215-0.167-0.489-0.268-0.786-0.268-0.028 0-0.056 0.001-0.083 0.003l0.004-0h-0.48v2.017h0.48c0.024 0.002 0.052 0.003 0.080 0.003 0.297 0 0.57-0.101 0.788-0.269l-0.003 0.002zM9.648 4.707s8.923 3.032 8.734 7.421v7.423s-8.916-3.034-8.731-7.423l-0.003-7.421zM26.331 17.813c1.685-1.044 3.634-1.691 5.669-1.881v-2.324c-2.345 0.813-4.333 2.288-5.669 4.204z"></path>
<path fill="#8e8f99" style="fill: var(--color1, #8e8f99)" d="M25.319 18.513c1.379-2.501 3.77-4.43 6.681-5.391v-6.696s-12.708 4.32-12.439 10.57v10.568s0.566-0.193 1.457-0.556c0-0.338 0-0.679 0.041-1.021 0.263-2.901 1.795-5.59 4.26-7.474z"></path>
<path fill="#8e8f99" style="fill: var(--color1, #8e8f99)" d="M24.11 22.439c0.075-0.799 0.232-1.534 0.465-2.234l-0.020 0.070c-1.534 1.627-2.464 3.647-2.658 5.775-0.018 0.201-0.028 0.401-0.034 0.608 1.065-0.458 1.868-0.846 2.655-1.26l-0.211 0.101c-0.152-0.649-0.239-1.394-0.239-2.16 0-0.317 0.015-0.631 0.044-0.94l-0.003 0.040zM24.615 22.477c-0.025 0.257-0.039 0.555-0.039 0.856 0 0.678 0.072 1.339 0.207 1.976l-0.011-0.062c3.472-1.87 7.373-4.759 7.222-8.252v-0.305c-2.48 0.25-4.801 1.227-6.606 2.779-0.398 0.879-0.673 1.899-0.771 2.97l-0.003 0.037z"></path>
</symbol>
<symbol id="icon-customers-foster-peters" viewBox="0 0 32 32">
<path fill="#8e8f99" style="fill: var(--color1, #8e8f99)" d="M4.982 12.959h-0.001c-0.909 0-1.646 0.664-1.646 1.483v0.001c0 0.819 0.737 1.483 1.646 1.483h0.001c0.909 0 1.646-0.664 1.646-1.483v-0.001c0-0.819-0.737-1.483-1.646-1.483zM17.128 12.485c-0.002-1.138-0.505-2.229-1.397-3.034s-2.102-1.258-3.365-1.261c-1.262 0.002-2.473 0.455-3.366 1.26s-1.396 1.896-1.398 3.034v6.276s9.525-0.956 9.526-6.275v-0.001zM0 20.821c0.002 0.792 0.352 1.551 0.973 2.111s1.463 0.876 2.341 0.878c0.878-0.002 1.72-0.318 2.341-0.878s0.971-1.318 0.973-2.11v-4.366s-6.628 0.666-6.628 4.365zM3.314 21.603c-0.171 0-0.339-0.046-0.482-0.132-0.139-0.083-0.249-0.203-0.318-0.346l-0.002-0.005c-0.042-0.088-0.066-0.191-0.066-0.299 0-0.054 0.006-0.107 0.017-0.157l-0.001 0.005c0.038-0.161 0.122-0.298 0.237-0.4l0.001-0.001c0.121-0.108 0.272-0.183 0.439-0.213l0.005-0.001c0.168-0.030 0.343-0.015 0.501 0.045s0.294 0.159 0.389 0.288 0.146 0.28 0.146 0.435c0 0.103-0.022 0.205-0.065 0.301s-0.107 0.182-0.188 0.255c-0.079 0.072-0.173 0.129-0.276 0.168l-0.006 0.002c-0.099 0.038-0.213 0.060-0.332 0.060-0 0-0.001 0-0.001 0h0v-0.003zM9.375 20.196v1.625h-0.335v-1.625h0.335zM10.022 20.89v0.261h-0.739v-0.261h0.739zM10.1 20.196v0.262h-0.816v-0.262h0.817zM11.629 20.971v0.077c0 0.124-0.017 0.235-0.050 0.333-0.032 0.097-0.080 0.181-0.143 0.252l0.001-0.001c-0.061 0.069-0.134 0.121-0.219 0.157-0.080 0.035-0.173 0.055-0.27 0.055-0.004 0-0.007-0-0.011-0h0.001c-0.102 0-0.195-0.018-0.28-0.054-0.086-0.038-0.159-0.091-0.218-0.157l-0.001-0.001c-0.062-0.071-0.111-0.154-0.142-0.246l-0.002-0.005c-0.032-0.095-0.050-0.204-0.050-0.318 0-0.005 0-0.010 0-0.016v0.001-0.077c0-0.124 0.017-0.235 0.050-0.333 0.032-0.097 0.081-0.18 0.143-0.252l-0.001 0.001c0.062-0.069 0.135-0.122 0.219-0.158 0.085-0.037 0.178-0.055 0.28-0.055 0.103 0 0.196 0.018 0.28 0.055s0.158 0.089 0.219 0.158c0.062 0.069 0.109 0.153 0.143 0.251 0.034 0.097 0.051 0.208 0.051 0.332zM11.291 21.048v-0.079c0-0.086-0.008-0.162-0.023-0.227-0.014-0.063-0.038-0.118-0.070-0.167l0.001 0.002c-0.028-0.042-0.066-0.076-0.11-0.1l-0.002-0.001c-0.042-0.022-0.092-0.034-0.144-0.034-0.002 0-0.005 0-0.007 0h0c-0.056 0-0.107 0.011-0.15 0.034-0.045 0.024-0.082 0.058-0.11 0.099l-0.001 0.001c-0.031 0.047-0.054 0.103-0.068 0.162l-0.001 0.003c-0.015 0.064-0.023 0.138-0.023 0.213 0 0.005 0 0.010 0 0.015v-0.001 0.079c0 0.086 0.008 0.162 0.023 0.228s0.039 0.121 0.069 0.166c0.030 0.045 0.068 0.078 0.112 0.101s0.094 0.035 0.15 0.035c0.057 0 0.107-0.011 0.151-0.034 0.045-0.025 0.083-0.059 0.11-0.101l0.001-0.001c0.030-0.046 0.053-0.101 0.068-0.166 0.015-0.064 0.023-0.138 0.023-0.214 0-0.005-0-0.010-0-0.014v0.001zM12.716 21.396c0-0.001 0-0.002 0-0.004 0-0.027-0.005-0.052-0.014-0.076l0.001 0.001c-0.010-0.026-0.026-0.048-0.047-0.065l-0-0c-0.028-0.023-0.060-0.043-0.095-0.058l-0.003-0.001c-0.043-0.020-0.097-0.041-0.152-0.058l-0.010-0.003c-0.086-0.028-0.155-0.055-0.222-0.086l0.013 0.005c-0.066-0.030-0.124-0.065-0.176-0.105l0.002 0.001c-0.048-0.038-0.087-0.085-0.117-0.137l-0.001-0.002c-0.027-0.051-0.043-0.112-0.043-0.176 0-0.003 0-0.005 0-0.008v0c-0-0.002-0-0.003-0-0.005 0-0.065 0.017-0.127 0.046-0.181l-0.001 0.002c0.030-0.056 0.072-0.104 0.125-0.143 0.053-0.040 0.117-0.071 0.19-0.093 0.074-0.021 0.154-0.032 0.242-0.032 0.12 0 0.224 0.022 0.314 0.065s0.158 0.102 0.208 0.178c0.050 0.075 0.075 0.161 0.075 0.258h-0.333c0-0.002 0-0.004 0-0.006 0-0.044-0.011-0.085-0.031-0.12l0.001 0.001c-0.020-0.037-0.051-0.067-0.088-0.086l-0.001-0.001c-0.040-0.020-0.088-0.031-0.138-0.031-0.004 0-0.008 0-0.012 0l0.001-0c-0.003-0-0.007-0-0.011-0-0.048 0-0.094 0.010-0.136 0.028l0.002-0.001c-0.036 0.015-0.066 0.039-0.087 0.070l-0 0.001c-0.018 0.027-0.029 0.060-0.029 0.095 0 0.001 0 0.002 0 0.003v-0c0 0.027 0.006 0.053 0.020 0.075 0.017 0.025 0.038 0.046 0.062 0.062l0.001 0c0.027 0.019 0.061 0.038 0.101 0.055s0.087 0.034 0.139 0.050c0.089 0.027 0.166 0.057 0.234 0.090s0.124 0.071 0.17 0.113c0.046 0.042 0.080 0.089 0.103 0.142s0.034 0.113 0.034 0.18c0 0.005 0 0.010 0 0.016 0 0.129-0.063 0.244-0.16 0.315l-0.001 0.001c-0.052 0.038-0.114 0.068-0.186 0.088s-0.153 0.030-0.242 0.030c-0.080 0-0.16-0.011-0.238-0.032-0.081-0.022-0.152-0.056-0.216-0.099l0.003 0.002c-0.063-0.043-0.114-0.098-0.15-0.163l-0.001-0.002c-0.038-0.067-0.057-0.146-0.057-0.238h0.336c0 0.051 0.008 0.093 0.023 0.128s0.037 0.063 0.065 0.084l0.001 0c0.029 0.021 0.064 0.038 0.101 0.046l0.002 0c0.040 0.010 0.084 0.014 0.131 0.014 0.004 0 0.008 0 0.012 0 0.047 0 0.092-0.009 0.133-0.025l-0.002 0.001c0.066-0.027 0.112-0.090 0.112-0.164 0-0.001 0-0.002-0-0.003v0zM14.005 20.196v1.625h-0.334v-1.625h0.334zM14.506 20.196v0.262h-1.326v-0.262h1.326zM15.787 21.56v0.261h-0.865v-0.261h0.865zM15.031 20.196v1.625h-0.335v-1.625h0.335zM15.674 20.858v0.254h-0.752v-0.254h0.752zM15.786 20.196v0.262h-0.864v-0.262h0.864zM15.982 20.196h0.606c0.125 0 0.231 0.019 0.32 0.056 0.090 0.037 0.159 0.093 0.208 0.165s0.072 0.163 0.072 0.269c0 0.087-0.014 0.162-0.045 0.224s-0.071 0.114-0.123 0.154l-0.001 0.001c-0.053 0.041-0.115 0.074-0.182 0.097l-0.005 0.001-0.106 0.056h-0.527l-0.002-0.261h0.392c0.003 0 0.007 0 0.011 0 0.049 0 0.096-0.012 0.137-0.032l-0.002 0.001c0.038-0.020 0.067-0.050 0.087-0.086l0.001-0.001c0.019-0.036 0.030-0.078 0.030-0.123 0-0.002-0-0.004-0-0.006v0c0-0.002 0-0.005 0-0.007 0-0.046-0.011-0.090-0.030-0.129l0.001 0.002c-0.020-0.038-0.050-0.068-0.087-0.086l-0.001-0c-0.040-0.019-0.088-0.031-0.138-0.031-0.004 0-0.007 0-0.011 0h-0.271v1.363h-0.334v-1.625zM16.89 21.821l-0.37-0.725 0.354-0.002 0.375 0.711v0.015h-0.358zM18.648 21.242h-0.414v-0.261h0.414c0.004 0 0.009 0 0.013 0 0.052 0 0.101-0.012 0.145-0.032l-0.002 0.001c0.038-0.020 0.069-0.051 0.087-0.088l0.001-0.001c0.017-0.039 0.028-0.084 0.028-0.132s-0.010-0.093-0.028-0.134l0.001 0.002c-0.019-0.042-0.049-0.077-0.087-0.1l-0.001-0.001c-0.041-0.024-0.091-0.038-0.144-0.038-0.004 0-0.009 0-0.013 0l0.001-0h-0.298v1.363h-0.334v-1.625h0.632c0.128 0 0.236 0.023 0.328 0.069 0.091 0.045 0.161 0.108 0.21 0.189s0.072 0.172 0.072 0.275c0 0.105-0.024 0.196-0.072 0.272s-0.118 0.136-0.21 0.178c-0.091 0.042-0.2 0.062-0.328 0.062zM20.579 21.56v0.261h-0.865v-0.261h0.865zM19.824 20.196v1.625h-0.335v-1.625h0.335zM20.466 20.858v0.254h-0.752v-0.254h0.752zM20.578 20.196v0.262h-0.864v-0.262h0.864zM21.523 20.196v1.625h-0.333v-1.625h0.334zM22.023 20.196v0.262h-1.326v-0.262h1.326zM23.304 21.56v0.261h-0.865v-0.261h0.865zM22.549 20.196v1.625h-0.335v-1.625h0.335zM23.192 20.858v0.254h-0.752v-0.254h0.752zM23.303 20.196v0.262h-0.864v-0.262h0.864zM23.5 20.196h0.606c0.125 0 0.231 0.019 0.321 0.056s0.159 0.093 0.208 0.165c0.048 0.073 0.072 0.163 0.072 0.269 0 0.087-0.015 0.162-0.045 0.224s-0.071 0.114-0.123 0.154l-0.001 0.001c-0.053 0.041-0.115 0.074-0.182 0.097l-0.005 0.001-0.106 0.056h-0.527l-0.002-0.261h0.392c0.003 0 0.007 0 0.011 0 0.049 0 0.096-0.012 0.137-0.032l-0.002 0.001c0.038-0.020 0.067-0.050 0.087-0.086l0.001-0.001c0.019-0.036 0.031-0.079 0.031-0.124 0-0.002-0-0.004-0-0.006v0c0-0.002 0-0.004 0-0.007 0-0.047-0.011-0.091-0.030-0.13l0.001 0.002c-0.020-0.038-0.050-0.068-0.087-0.086l-0.001-0c-0.040-0.019-0.088-0.031-0.138-0.031-0.004 0-0.007 0-0.011 0h-0.27v1.363h-0.335v-1.625zM24.408 21.821l-0.371-0.725 0.354-0.002 0.375 0.711v0.015h-0.358zM25.81 21.396c0-0.001 0-0.002 0-0.002 0-0.027-0.005-0.053-0.014-0.077l0 0.001c-0.010-0.026-0.026-0.048-0.047-0.065l-0-0c-0.028-0.023-0.060-0.043-0.095-0.058l-0.003-0.001c-0.043-0.020-0.097-0.041-0.152-0.058l-0.010-0.003c-0.086-0.028-0.155-0.055-0.223-0.086l0.013 0.005c-0.066-0.030-0.124-0.065-0.176-0.105l0.002 0.001c-0.048-0.038-0.087-0.085-0.117-0.137l-0.001-0.002c-0.027-0.051-0.043-0.112-0.043-0.176 0-0.003 0-0.005 0-0.008v0c-0-0.002-0-0.003-0-0.005 0-0.065 0.017-0.127 0.046-0.181l-0.001 0.002c0.030-0.056 0.072-0.104 0.125-0.143 0.053-0.040 0.117-0.071 0.19-0.093 0.074-0.021 0.154-0.032 0.242-0.032 0.12 0 0.224 0.022 0.314 0.065s0.158 0.102 0.208 0.178c0.050 0.075 0.075 0.161 0.075 0.258h-0.333c0-0.002 0-0.004 0-0.006 0-0.044-0.011-0.085-0.031-0.12l0.001 0.001c-0.020-0.037-0.051-0.067-0.088-0.086l-0.001-0.001c-0.040-0.020-0.088-0.031-0.138-0.031-0.004 0-0.008 0-0.012 0l0.001-0c-0.003-0-0.007-0-0.011-0-0.048 0-0.094 0.010-0.136 0.028l0.002-0.001c-0.036 0.015-0.066 0.039-0.087 0.070l-0 0.001c-0.018 0.027-0.029 0.060-0.029 0.096 0 0.001 0 0.002 0 0.003v-0c0 0.027 0.006 0.053 0.020 0.075 0.017 0.025 0.038 0.046 0.062 0.062l0.001 0c0.027 0.019 0.061 0.038 0.101 0.055s0.087 0.034 0.139 0.050c0.089 0.027 0.166 0.057 0.234 0.090s0.124 0.071 0.17 0.113c0.046 0.042 0.080 0.089 0.103 0.142s0.034 0.113 0.034 0.18c0 0.005 0 0.010 0 0.016 0 0.129-0.063 0.244-0.16 0.315l-0.001 0.001c-0.052 0.038-0.114 0.068-0.186 0.088s-0.153 0.030-0.242 0.030c-0.080 0-0.16-0.011-0.238-0.032-0.081-0.022-0.152-0.056-0.216-0.099l0.003 0.002c-0.063-0.043-0.114-0.098-0.151-0.163l-0.001-0.002c-0.038-0.067-0.057-0.146-0.057-0.238h0.336c0 0.051 0.008 0.093 0.023 0.128s0.037 0.063 0.065 0.084l0 0c0.029 0.021 0.064 0.038 0.101 0.046l0.002 0c0.040 0.010 0.084 0.014 0.132 0.014 0.004 0 0.008 0 0.012 0 0.047 0 0.092-0.009 0.133-0.025l-0.002 0.001c0.066-0.027 0.112-0.090 0.112-0.164 0-0.001 0-0.002-0-0.003v0z"></path>
</symbol>
<symbol id="icon-customers-taglien-here" viewBox="0 0 32 32">
<path fill="#8e8f99" style="fill: var(--color1, #8e8f99)" d="M14.224 1.806h-0.084c-0.129-0.008-0.258-0.011-0.388-0.014h-0.28c-0.244 0-0.494 0.006-0.741 0.018-0.008-0.001-0.018-0.001-0.028-0.001s-0.020 0-0.029 0.001l0.001-0c-2.376 0.138-4.582 0.733-6.576 1.696l0.104-0.045-0.266 0.128v13.626l0.623-0.212c0.546-0.188 1.129-0.357 1.731-0.513 1.488-0.398 3.202-0.638 4.967-0.661l0.014-0v1.79c-0.223 0.001-0.439 0.007-0.655 0.018h-0.052c-1.399 0.079-2.709 0.289-3.971 0.619l0.139-0.031c-1.734 0.441-3.254 1.050-4.666 1.83l0.1-0.051v-17.475c1.379-0.82 2.975-1.488 4.665-1.921l0.127-0.028c1.353-0.364 2.907-0.576 4.51-0.582h0.267c0.314 0.008 0.622 0.022 0.91 0.044 0.829 0.060 1.597 0.187 2.339 0.378l-0.090-0.020v1.762c-0.628-0.154-1.373-0.271-2.134-0.326l-0.045-0.003-0.044-0.004c-0.152-0.013-0.304-0.026-0.446-0.026zM17.325 3.607c0.391 0.030 0.796 0.044 1.205 0.044 1.689-0.007 3.324-0.228 4.881-0.639l-0.135 0.030c1.734-0.442 3.252-1.052 4.665-1.831l-0.101 0.051v17.163c-1.379 0.819-2.975 1.487-4.664 1.921l-0.127 0.028c-1.353 0.363-2.908 0.574-4.511 0.581h-0.004c-0.033 0-0.072 0-0.111 0-1.177 0-2.319-0.147-3.409-0.425l0.095 0.021v-17.275c0.265 0.062 0.537 0.118 0.814 0.164 0.455 0.077 0.934 0.133 1.401 0.167zM26.060 3.74l-0.623 0.209c-0.572 0.193-1.151 0.365-1.731 0.518-1.551 0.415-3.332 0.657-5.169 0.663h-0.004c-0.406 0-0.78-0.011-1.141-0.034l-0.497-0.033v14.017l0.426 0.037c0.395 0.035 0.803 0.052 1.214 0.052 1.45-0.006 2.853-0.198 4.189-0.553l-0.116 0.026c1.221-0.31 2.281-0.702 3.285-1.189l-0.102 0.044 0.266-0.128v-13.63z"></path>
<path fill="#8e8f99" style="fill: var(--color1, #8e8f99)" d="M5.377 25.977c-0.167-0.173-0.401-0.281-0.661-0.281-0.011 0-0.023 0-0.034 0.001l0.002-0c-0.004-0-0.009-0-0.014-0-0.139 0-0.272 0.028-0.393 0.078l0.007-0.003c-0.237 0.095-0.42 0.28-0.51 0.512l-0.002 0.006c-0.049 0.123-0.073 0.254-0.071 0.386v2.335c-0.006 0.164 0.026 0.328 0.092 0.479 0.055 0.12 0.135 0.226 0.234 0.313 0.093 0.078 0.202 0.135 0.32 0.166 0.114 0.031 0.231 0.048 0.349 0.048 0.13 0.001 0.258-0.026 0.377-0.081 0.351-0.156 0.591-0.5 0.591-0.901v-0.261h-0.611v0.208c0 0.004 0 0.009 0 0.014 0 0.070-0.013 0.136-0.037 0.198l0.001-0.004c-0.021 0.052-0.051 0.095-0.088 0.132l-0 0c-0.070 0.054-0.159 0.088-0.255 0.089h-0c-0.011 0.001-0.023 0.002-0.036 0.002-0.103 0-0.194-0.050-0.25-0.127l-0.001-0.001c-0.051-0.082-0.082-0.182-0.082-0.289 0-0.008 0-0.016 0.001-0.024l-0 0.001v-2.177c-0.004-0.121 0.022-0.24 0.075-0.349 0.056-0.087 0.153-0.143 0.262-0.143 0.013 0 0.025 0.001 0.038 0.002l-0.002-0c0.003-0 0.008-0 0.012-0 0.107 0 0.201 0.052 0.26 0.131l0.001 0.001c0.063 0.082 0.101 0.187 0.101 0.3 0 0.005-0 0.009-0 0.014v-0.001 0.202h0.604v-0.238c0-0.003 0-0.007 0-0.011 0-0.143-0.027-0.28-0.077-0.405l0.003 0.007c-0.048-0.128-0.117-0.237-0.205-0.329l0 0zM9.002 25.951c-0.186-0.158-0.429-0.255-0.694-0.257h-0c-0.124 0-0.248 0.023-0.364 0.066-0.252 0.090-0.451 0.276-0.557 0.511l-0.002 0.006c-0.062 0.142-0.092 0.297-0.089 0.452v2.239c-0.004 0.158 0.026 0.314 0.089 0.458 0.055 0.121 0.135 0.228 0.236 0.313 0.094 0.086 0.203 0.154 0.322 0.197 0.117 0.043 0.24 0.065 0.364 0.066 0.267-0.001 0.51-0.1 0.695-0.264l-0.001 0.001c0.097-0.087 0.176-0.194 0.23-0.313 0.063-0.144 0.093-0.301 0.089-0.458v-2.239c0-0.006 0-0.013 0-0.020 0-0.156-0.033-0.305-0.092-0.439l0.003 0.007c-0.057-0.128-0.135-0.237-0.23-0.327l-0-0zM8.718 28.969c0.001 0.010 0.002 0.023 0.002 0.035 0 0.114-0.047 0.216-0.123 0.289l-0 0c-0.077 0.065-0.178 0.105-0.287 0.105s-0.21-0.040-0.288-0.105l0.001 0.001c-0.076-0.073-0.123-0.175-0.123-0.289 0-0.012 0.001-0.025 0.002-0.037l-0 0.002v-2.239c-0.001-0.010-0.001-0.022-0.001-0.034 0-0.113 0.047-0.216 0.123-0.289l0-0c0.077-0.065 0.178-0.105 0.287-0.105s0.21 0.040 0.288 0.105l-0.001-0.001c0.076 0.073 0.123 0.175 0.123 0.289 0 0.012-0.001 0.025-0.002 0.037l0-0.002v2.24zM13.764 29.969v-4.24h-0.586l-0.771 2.244h-0.010l-0.777-2.244h-0.58v4.239h0.606v-2.578h0.011l0.593 1.823h0.302l0.598-1.823h0.010v2.578h0.606zM17.205 26.027c-0.093-0.105-0.211-0.185-0.342-0.232-0.124-0.042-0.267-0.066-0.416-0.066-0.008 0-0.016 0-0.024 0l0.001-0h-0.9v4.24h0.604v-1.656h0.311c0.189 0.009 0.376-0.031 0.545-0.116 0.139-0.078 0.251-0.188 0.329-0.32l0.002-0.004c0.070-0.113 0.117-0.238 0.138-0.369 0.021-0.133 0.033-0.287 0.033-0.444 0-0.013-0-0.027-0-0.040l0 0.002c0.006-0.203-0.014-0.407-0.059-0.606-0.043-0.153-0.12-0.284-0.223-0.39l0 0zM16.894 27.319c-0.003 0.081-0.023 0.157-0.057 0.224l0.001-0.003c-0.035 0.065-0.089 0.116-0.154 0.147l-0.002 0.001c-0.075 0.034-0.162 0.054-0.254 0.054-0.011 0-0.022-0-0.033-0.001l0.002 0h-0.276v-1.441h0.311c0.009-0 0.019-0.001 0.029-0.001 0.088 0 0.172 0.020 0.247 0.055l-0.004-0.002c0.062 0.036 0.111 0.090 0.141 0.154l0.001 0.002c0.033 0.074 0.051 0.155 0.053 0.236v0.282c0 0.098 0.006 0.201 0 0.291h-0.006zM20.066 25.729h-0.495l-0.934 4.24h0.604l0.177-0.911h0.823l0.178 0.911h0.604l-0.958-4.24zM19.509 28.481l0.297-1.537h0.011l0.295 1.537h-0.604zM23.969 28.283h-0.011l-0.912-2.554h-0.581v4.24h0.604v-2.55h0.012l0.923 2.549h0.568v-4.239h-0.604v2.554zM27.66 25.729l-0.486 1.686h-0.012l-0.486-1.686h-0.639l0.83 2.448v1.791h0.604v-1.791l0.83-2.447h-0.64zM3.692 31.166h0.291v0.817h0.198v-0.817h0.289v-0.167h-0.778v0.168zM6.14 30.998l-0.382 0.985h0.21l0.081-0.224h0.392l0.084 0.224h0.215l-0.391-0.985h-0.21zM6.109 31.593l0.134-0.365 0.134 0.365h-0.268zM8.559 31.62h0.228v0.127c-0.063 0.051-0.145 0.082-0.234 0.083h-0c-0.004 0-0.009 0-0.014 0-0.079 0-0.149-0.037-0.195-0.094l-0-0c-0.046-0.065-0.073-0.147-0.073-0.234 0-0.008 0-0.016 0.001-0.023l-0 0.001c0-0.219 0.095-0.329 0.283-0.329 0.006-0.001 0.014-0.001 0.021-0.001 0.097 0 0.178 0.067 0.201 0.157l0 0.001 0.194-0.038c-0.042-0.192-0.18-0.289-0.417-0.289-0.004-0-0.008-0-0.013-0-0.127 0-0.244 0.048-0.331 0.127l0-0c-0.088 0.087-0.143 0.208-0.143 0.342 0 0.013 0.001 0.026 0.002 0.038l-0-0.002c-0 0.007-0 0.015-0 0.023 0 0.132 0.048 0.254 0.127 0.347l-0.001-0.001c0.087 0.090 0.209 0.146 0.343 0.146 0.011 0 0.021-0 0.032-0.001l-0.001 0c0.005 0 0.010 0 0.016 0 0.155 0 0.296-0.060 0.402-0.157l-0 0v-0.388h-0.426v0.166zM11.030 30.998h-0.199v0.985h0.689v-0.167h-0.49v-0.817zM13.119 30.998h-0.199v0.985h0.199v-0.985zM15.161 31.655l-0.404-0.657h-0.193v0.985h0.185v-0.643l0.396 0.643h0.198v-0.985h-0.182v0.658zM17.007 31.549h0.49v-0.167h-0.49v-0.215h0.527v-0.168h-0.727v0.985h0.747v-0.167h-0.548v-0.266zM21.484 31.386h-0.388v-0.388h-0.197v0.984h0.197v-0.431h0.388v0.431h0.198v-0.985h-0.198v0.388zM23.342 31.549h0.492v-0.167h-0.492v-0.215h0.529v-0.168h-0.726v0.985h0.746v-0.167h-0.548v-0.266zM25.86 31.55c0.171-0.027 0.258-0.118 0.258-0.274 0.001-0.008 0.002-0.018 0.002-0.028 0-0.079-0.038-0.148-0.098-0.191l-0.001-0c-0.073-0.037-0.159-0.059-0.25-0.059-0.014 0-0.027 0-0.040 0.001l0.002-0h-0.417v0.984h0.198v-0.412h0.039c0.005-0 0.010-0 0.016-0 0.039 0 0.076 0.008 0.109 0.023l-0.002-0.001c0.029 0.018 0.053 0.042 0.070 0.072l0.215 0.313h0.236l-0.12-0.192c-0.054-0.096-0.128-0.175-0.215-0.235l-0.002-0.002zM25.661 31.413h-0.146v-0.247h0.156c0.012-0.001 0.027-0.002 0.042-0.002 0.057 0 0.111 0.009 0.163 0.026l-0.004-0.001c0.026 0.024 0.043 0.058 0.043 0.096 0 0.042-0.020 0.080-0.052 0.104l-0 0c-0.049 0.016-0.106 0.025-0.164 0.025-0.013 0-0.026-0-0.039-0.001l0.002 0zM27.76 31.549h0.49v-0.167h-0.49v-0.215h0.529v-0.168h-0.729v0.985h0.747v-0.167h-0.548v-0.266z"></path>
</symbol>
<symbol id="icon-customers-yaco" viewBox="0 0 32 32">
<path fill="#8e8f99" style="fill: var(--color1, #8e8f99)" d="M6.128 0l4.771 4.545-8.857-0.004v22.053h23.149v-8.432l4.766 4.541v-22.703h-23.83zM24.982 17.629l-13.528-12.889h13.528v12.889zM20.782 23.368h-15.076v-14.832h1.066v13.828h14.011v1.005zM8.712 30.681l-0.562-1.156h-0.464l0.814 1.529v0.891h0.42v-0.892l0.815-1.529h-0.462l-0.562 1.155zM10.783 29.525h0.099l0.914 2.42h-0.438l-0.196-0.566h-0.937l-0.195 0.566h-0.437l0.911-2.42h0.279zM10.339 31.048h0.709l-0.354-1.027-0.354 1.027zM13.264 30.646c-0.007-0.008-0.024-0.030-0.041-0.052l-0.011-0.015c-0.054-0.069-0.102-0.147-0.142-0.23l-0.003-0.008c-0.032-0.070-0.051-0.153-0.051-0.239 0-0 0-0 0-0.001v0c0-0.126 0.026-0.234 0.078-0.325s0.128-0.162 0.218-0.208l0.003-0.001c0.095-0.050 0.207-0.075 0.334-0.075 0.123 0 0.229 0.025 0.318 0.075 0.168 0.089 0.281 0.263 0.281 0.463 0 0.075-0.016 0.146-0.044 0.21l0.001-0.003c-0.030 0.067-0.069 0.124-0.116 0.173l0-0c-0.051 0.054-0.106 0.103-0.165 0.146l-0.003 0.002-0.168 0.123 0.479 0.565c0.066-0.126 0.104-0.276 0.104-0.435 0-0.006-0-0.012-0-0.018v0.001h0.346c0 0.118-0.012 0.229-0.035 0.334-0.032 0.152-0.094 0.287-0.179 0.403l0.002-0.003 0.354 0.419h-0.463l-0.141-0.165c-0.071 0.055-0.154 0.101-0.242 0.134l-0.007 0.002c-0.109 0.040-0.235 0.063-0.367 0.063-0.003 0-0.006 0-0.009-0h0c-0.161 0-0.3-0.029-0.417-0.088-0.113-0.055-0.206-0.138-0.271-0.24l-0.002-0.003c-0.060-0.098-0.095-0.216-0.095-0.343 0-0.004 0-0.008 0-0.012v0.001c0-0.099 0.020-0.185 0.061-0.259 0.042-0.076 0.097-0.146 0.168-0.21 0.066-0.059 0.14-0.118 0.225-0.178zM13.463 30.89l-0.050 0.036c-0.051 0.039-0.094 0.085-0.13 0.136l-0.001 0.002c-0.043 0.063-0.068 0.14-0.068 0.224 0 0.067 0.017 0.131 0.046 0.187l-0.001-0.002c0.032 0.058 0.078 0.105 0.133 0.137l0.002 0.001c0.060 0.032 0.13 0.051 0.205 0.051 0.004 0 0.009-0 0.013-0h-0.001c0.092 0 0.181-0.020 0.268-0.061 0.047-0.023 0.087-0.049 0.124-0.078l-0.002 0.001-0.538-0.633zM13.558 30.448l0.148-0.099c0.059-0.036 0.109-0.082 0.149-0.135l0.001-0.001c0.028-0.045 0.045-0.1 0.045-0.159 0-0.004-0-0.008-0-0.012l0 0.001c-0.004-0.13-0.111-0.233-0.241-0.233-0.005 0-0.010 0-0.014 0l0.001-0c-0.002-0-0.005-0-0.007-0-0.099 0-0.184 0.058-0.223 0.142l-0.001 0.002c-0.018 0.040-0.029 0.088-0.029 0.137 0 0.058 0.014 0.113 0.040 0.161l-0.001-0.002c0.025 0.052 0.060 0.107 0.105 0.165l0.027 0.035zM17.793 31.158h-0.416c-0.009 0.099-0.037 0.19-0.078 0.272l0.002-0.004c-0.038 0.072-0.096 0.128-0.166 0.164l-0.002 0.001c-0.077 0.036-0.167 0.057-0.262 0.057-0.009 0-0.018-0-0.027-0.001l0.001 0c-0.004 0-0.009 0-0.014 0-0.087 0-0.169-0.022-0.24-0.060l0.003 0.001c-0.071-0.040-0.13-0.096-0.172-0.163l-0.001-0.002c-0.045-0.073-0.079-0.158-0.098-0.249l-0.001-0.005c-0.020-0.096-0.032-0.207-0.032-0.32 0-0.004 0-0.009 0-0.013v0.001-0.204c0-0.129 0.012-0.243 0.035-0.343s0.060-0.185 0.108-0.254c0.045-0.066 0.105-0.119 0.176-0.155l0.003-0.001c0.069-0.034 0.15-0.053 0.236-0.053 0.005 0 0.009 0 0.014 0h-0.001c0.116 0 0.21 0.020 0.283 0.060s0.126 0.095 0.163 0.17c0.037 0.074 0.062 0.163 0.073 0.267h0.415c-0.015-0.16-0.063-0.307-0.139-0.435l0.003 0.005c-0.074-0.125-0.179-0.226-0.305-0.292l-0.004-0.002c-0.133-0.068-0.291-0.107-0.457-0.107-0.011 0-0.022 0-0.032 0l0.002-0c-0.152 0-0.289 0.027-0.411 0.080s-0.225 0.129-0.311 0.232c-0.087 0.101-0.155 0.221-0.197 0.353l-0.002 0.007c-0.046 0.14-0.068 0.298-0.068 0.472v0.202c0 0.174 0.022 0.331 0.067 0.472s0.111 0.261 0.196 0.361c0.085 0.099 0.188 0.175 0.307 0.229 0.12 0.053 0.255 0.080 0.404 0.080 0.195 0 0.361-0.035 0.497-0.106s0.242-0.168 0.317-0.291c0.075-0.124 0.12-0.266 0.133-0.424zM20.101 30.802v-0.133c0-0.182-0.024-0.347-0.073-0.49-0.045-0.143-0.115-0.267-0.206-0.373l0.001 0.001c-0.086-0.1-0.192-0.179-0.312-0.232l-0.006-0.002c-0.123-0.054-0.259-0.082-0.409-0.082-0.148 0-0.285 0.027-0.407 0.082-0.123 0.053-0.228 0.131-0.318 0.234-0.088 0.102-0.157 0.226-0.206 0.371-0.047 0.14-0.074 0.301-0.074 0.468 0 0.008 0 0.015 0 0.023v-0.001 0.133c0 0.183 0.024 0.347 0.074 0.492 0.048 0.143 0.119 0.266 0.21 0.372l-0.001-0.001c0.090 0.102 0.196 0.18 0.317 0.235 0.123 0.053 0.259 0.080 0.408 0.080s0.286-0.027 0.409-0.080c0.123-0.054 0.229-0.133 0.316-0.235 0.088-0.102 0.157-0.225 0.204-0.37s0.072-0.309 0.072-0.492zM19.685 30.666v0.136c0 0.136-0.014 0.255-0.040 0.36-0.023 0.1-0.062 0.189-0.115 0.267l0.002-0.003c-0.047 0.068-0.108 0.122-0.18 0.16l-0.003 0.001c-0.069 0.034-0.151 0.053-0.237 0.053-0.004 0-0.008-0-0.012-0h0.001c-0.003 0-0.007 0-0.011 0-0.086 0-0.167-0.020-0.239-0.055l0.003 0.001c-0.075-0.040-0.137-0.094-0.185-0.16l-0.001-0.002c-0.052-0.076-0.092-0.164-0.115-0.259l-0.001-0.005c-0.026-0.102-0.040-0.22-0.040-0.341 0-0.007 0-0.013 0-0.020v0.001-0.136c0-0.135 0.014-0.254 0.040-0.357s0.065-0.191 0.115-0.261c0.047-0.067 0.109-0.121 0.181-0.158l0.003-0.001c0.069-0.035 0.151-0.055 0.237-0.055 0.003 0 0.007 0 0.010 0h-0c0.092 0 0.174 0.018 0.248 0.054s0.134 0.088 0.184 0.16c0.051 0.069 0.090 0.157 0.115 0.261 0.027 0.104 0.040 0.223 0.040 0.357z"></path>
</symbol>
<symbol id="icon-why-we-antenna" viewBox="0 0 32 32">
<path fill="#2e2f42" style="fill: var(--color2, #2e2f42)" d="M30.773 22.098l-8.443-8.505 0.937-4.615c0.242 0.094 0.499 0.143 0.759 0.145h0.006c0.008 0 0.017 0 0.026 0 1.192 0 2.159-0.967 2.159-2.159s-0.967-2.159-2.159-2.159c-1.192 0-2.159 0.967-2.159 2.159 0 0.26 0.046 0.508 0.13 0.739l-0.005-0.015-4.96 0.605-8.091-8.133c-0.096-0.098-0.229-0.159-0.376-0.16h-0c-0.14 0.001-0.274 0.057-0.373 0.155l-1.513 1.504c-0.097 0.097-0.156 0.23-0.156 0.377s0.060 0.281 0.156 0.377v0l0.814 0.825c-1.143 2.062-1.816 4.522-1.816 7.139 0 4.106 1.656 7.825 4.336 10.526l-0.001-0.001c0.042 0.041 0.091 0.073 0.146 0.098-0.032 0.164-0.051 0.353-0.052 0.546v6.188h-6.4c-1.472 0.001-2.666 1.194-2.667 2.666v1.067c0 0.295 0.239 0.533 0.534 0.533h24.534c0.294 0 0.534-0.239 0.534-0.534v-1.067c-0.002-1.472-1.195-2.665-2.667-2.666h-6.4v-2.742c1.003 0.21 2.024 0.317 3.049 0.32 2.58-0.003 5.005-0.663 7.117-1.822l-0.077 0.039 0.819 0.823c0.099 0.101 0.235 0.159 0.377 0.16 0.14-0.001 0.274-0.056 0.373-0.155l1.512-1.505c0.096-0.097 0.156-0.23 0.156-0.377s-0.060-0.28-0.156-0.377v0zM23.28 6.233c0.193-0.192 0.458-0.31 0.752-0.31 0.589 0 1.067 0.478 1.067 1.066s-0.477 1.066-1.067 1.066c-0 0-0 0-0 0h-0.003c-0.587-0.003-1.061-0.479-1.061-1.066 0-0.296 0.12-0.563 0.315-0.756l0-0h-0.002zM22.024 9.738l-0.599 2.945-1.175-1.182 1.774-1.764zM21.419 8.836l-1.92 1.909-1.485-1.493 3.405-0.415zM24.004 28.8c0.884 0 1.6 0.716 1.6 1.6v0 0.534h-23.466v-0.534c0-0.884 0.716-1.6 1.6-1.6h20.267zM16.538 26.666v1.067h-5.334v-1.067h5.334zM11.204 25.6v-4.053c0-1.294 1.197-2.346 2.666-2.346s2.667 1.053 2.667 2.346v4.053h-5.334zM17.604 23.904v-2.357c0-1.882-1.675-3.413-3.733-3.413-0.018-0-0.038-0-0.059-0-1.353 0-2.54 0.707-3.213 1.771l-0.009 0.016c-2.36-2.482-3.811-5.846-3.811-9.549 0-2.314 0.567-4.496 1.569-6.414l-0.036 0.077 18.602 18.709c-1.823 0.947-3.98 1.502-6.266 1.502-1.079 0-2.128-0.124-3.136-0.357l0.093 0.018zM28.893 23.221l-21.057-21.18 0.755-0.752 7.935 7.98c0.003 0 0.006 0.007 0.009 0.009l13.114 13.191-0.757 0.752z"></path>
<path fill="#4d5ae5" style="fill: var(--color3, #4d5ae5)" d="M13.876 20.267h-0.005c-0.001 0-0.002 0-0.002 0-0.884 0-1.6 0.716-1.6 1.6s0.715 1.599 1.597 1.6h0.005c0.001 0 0.002 0 0.002 0 0.884 0 1.6-0.716 1.6-1.6s-0.715-1.599-1.597-1.6h-0zM14.249 22.245c-0.096 0.096-0.229 0.155-0.376 0.155-0.295 0-0.534-0.239-0.534-0.534 0-0.001 0-0.001 0-0.002v0c0.002-0.292 0.238-0.529 0.53-0.53h0c0.293 0.002 0.531 0.24 0.531 0.534 0 0.148-0.060 0.281-0.157 0.378l-0 0h0.005z"></path>
</symbol>
<symbol id="icon-why-we-clock" viewBox="0 0 32 32">
<path fill="#2e2f42" style="fill: var(--color2, #2e2f42)" d="M31.297 15.301c-0.002-8.452-6.855-15.303-15.308-15.301s-15.303 6.855-15.301 15.308c0.002 6.788 4.422 12.543 10.541 14.545l0.108 0.031c0.060 0.019 0.123 0.029 0.187 0.029 0.121 0 0.239-0.032 0.342-0.093 0.135-0.080 0.236-0.207 0.284-0.357l3.865-12.25c1.054-0.004 1.906-0.859 1.906-1.913 0-1.057-0.856-1.913-1.913-1.913-0.303 0-0.59 0.070-0.844 0.196l0.011-0.005-5.106-5.107c-0.115-0.115-0.275-0.187-0.451-0.187-0.352 0-0.638 0.285-0.638 0.638 0 0.176 0.071 0.336 0.187 0.451v0l5.104 5.109c-0.121 0.241-0.191 0.525-0.191 0.826 0 0.601 0.283 1.137 0.723 1.48l0.004 0.003-3.683 11.673c-7.278-2.681-11.005-10.754-8.323-18.032 2.681-7.277 10.755-11.005 18.032-8.323s11.004 10.755 8.323 18.032c-1.345 3.581-4.004 6.406-7.374 7.938l-0.088 0.036-0.398-1.875c-0.063-0.291-0.318-0.505-0.624-0.505-0.163 0-0.312 0.061-0.425 0.162l0.001-0.001-3.837 3.425c-0.132 0.117-0.214 0.287-0.214 0.477 0 0.283 0.185 0.524 0.441 0.607l0.005 0.001 4.899 1.564c0.058 0.020 0.126 0.031 0.196 0.031 0.352 0 0.637-0.285 0.637-0.637 0-0.047-0.005-0.093-0.015-0.137l0.001 0.004-0.391-1.839c5.528-2.374 9.329-7.772 9.329-14.057 0-0.011 0-0.023-0-0.034v0.002zM15.992 14.664c0.352 0 0.638 0.286 0.638 0.638s-0.286 0.638-0.638 0.638v0c-0.352 0-0.638-0.286-0.638-0.638s0.286-0.638 0.638-0.638v0zM18.093 29.527l2.184-1.948 0.603 2.84-2.787-0.892z"></path>
<path fill="#4d5ae5" style="fill: var(--color3, #4d5ae5)" d="M15.354 3.185v1.275c0 0.352 0.285 0.638 0.637 0.638s0.638-0.285 0.638-0.638v-1.275c-0.014-0.341-0.294-0.613-0.637-0.613s-0.624 0.271-0.637 0.611l-0 0.001zM3.876 14.664c-0.352 0-0.637 0.285-0.637 0.637s0.285 0.637 0.638 0.637h1.275c0.352 0 0.638-0.285 0.638-0.637s-0.285-0.637-0.638-0.637h-1.275zM28.108 15.939c0.352 0 0.637-0.285 0.637-0.637s-0.285-0.637-0.637-0.637h-1.275c-0.341 0.014-0.613 0.294-0.613 0.637s0.271 0.624 0.611 0.637l0.001 0h1.275z"></path>
</symbol>
<symbol id="icon-why-we-diagram" viewBox="0 0 32 32">
<path fill="#4d5ae5" style="fill: var(--color3, #4d5ae5)" d="M14.925 14.965h1.066v4.797h-1.066v-4.797zM19.19 17.097h1.066v2.665h-1.066v-2.665zM10.661 18.696h1.066v1.066h-1.066v-1.066zM7.463 18.163h1.066v1.599h-1.066v-1.599z"></path>
<path fill="#2e2f42" style="fill: var(--color2, #2e2f42)" d="M1.599 28.291h25.587c0 0 0 0 0 0 0.883 0 1.599-0.716 1.599-1.599v0-2.133c0-0.883-0.716-1.599-1.599-1.599-0 0-0 0-0.001 0h-0.533v-13.293l3.028-2.868c0.207 0.105 0.452 0.166 0.711 0.166 0.888 0 1.608-0.72 1.608-1.608s-0.72-1.608-1.608-1.608c-0.888 0-1.608 0.72-1.608 1.608 0 0.247 0.055 0.48 0.155 0.689l-0.004-0.010-2.282 2.163v-1.23c0-0.883-0.716-1.599-1.599-1.599v0h-21.322c-0 0-0 0-0.001 0-0.883 0-1.599 0.716-1.599 1.599 0 0 0 0 0 0.001v-0 15.991h-0.533c-0.883 0-1.599 0.716-1.599 1.599 0 0 0 0 0 0.001v-0 2.133c0 0.883 0.716 1.599 1.599 1.599v0zM30.384 4.837c0.294 0 0.533 0.239 0.533 0.533s-0.239 0.533-0.533 0.533v0c-0.294 0-0.533-0.239-0.533-0.533s0.239-0.533 0.533-0.533v0zM3.199 6.969c0-0.295 0.239-0.534 0.533-0.534h21.322c0.294 0 0.533 0.239 0.533 0.534v2.238l-1.066 1.013v-2.185c0-0.295-0.238-0.533-0.533-0.533h-19.19c-0.295 0-0.533 0.239-0.533 0.533v13.326c0 0.295 0.239 0.534 0.533 0.534h19.19c0.294 0 0.533-0.239 0.533-0.534v-9.674l1.066-1.010v12.283h-22.388v-15.991zM7.996 13.899c-0.001 0-0.003 0-0.005 0-0.883 0-1.599 0.716-1.599 1.599s0.716 1.599 1.599 1.599c0.432 0 0.824-0.171 1.112-0.45l-0 0 1.853 0.93c0.215 0.108 0.476 0.057 0.636-0.123l3.938-4.431 3.872 2.902c0.208 0.156 0.498 0.139 0.686-0.040l3.365-3.188v8.131h-18.123v-12.26h18.124v2.66l-3.772 3.572-3.905-2.928c-0.088-0.066-0.199-0.106-0.319-0.106-0.158 0-0.3 0.069-0.398 0.178l-0 0.001-3.993 4.493-1.493-0.746c0.011-0.064 0.018-0.129 0.021-0.194-0-0.883-0.716-1.599-1.599-1.599h-0zM8.529 15.498c0 0.294-0.239 0.533-0.533 0.533s-0.533-0.239-0.533-0.533v0c0-0.294 0.239-0.533 0.533-0.533s0.533 0.239 0.533 0.533v0zM11.727 24.026h5.331v0.533c0 0.294-0.238 0.533-0.533 0.533h-4.264c-0.294 0-0.533-0.239-0.533-0.533v0-0.533zM1.066 24.56c0-0.294 0.239-0.533 0.533-0.533h9.062v0.533c0 0 0 0 0 0 0 0.883 0.716 1.599 1.599 1.599h4.265c0.883 0 1.599-0.716 1.599-1.599 0-0 0-0 0-0.001v0-0.533h9.061c0.295 0 0.534 0.238 0.534 0.533v2.133c0 0.294-0.239 0.533-0.534 0.533h-25.586c-0.294 0-0.533-0.239-0.533-0.533v0-2.133z"></path>
</symbol>
<symbol id="icon-why-we-astronaut" viewBox="0 0 32 32">
<path fill="#4d5ae5" style="fill: var(--color3, #4d5ae5)" d="M31.974 4.524c-0.064-0.191-0.227-0.332-0.427-0.362l-0.003-0-1.911-0.278-0.855-1.731c-0.179-0.365-0.776-0.365-0.956 0l-0.855 1.731-1.91 0.278c-0.26 0.039-0.457 0.26-0.457 0.528 0 0.149 0.061 0.285 0.161 0.381l1.383 1.348-0.326 1.903c-0.034 0.2 0.048 0.402 0.212 0.521 0.166 0.12 0.383 0.136 0.562 0.040l1.709-0.899 1.709 0.899c0.072 0.038 0.157 0.061 0.247 0.061 0.295 0 0.534-0.239 0.534-0.534 0-0.031-0.003-0.062-0.008-0.092l0 0.003-0.326-1.903 1.383-1.348c0.099-0.097 0.161-0.233 0.161-0.382 0-0.059-0.009-0.115-0.027-0.168l0.001 0.004zM29.511 5.851c-0.125 0.122-0.183 0.299-0.153 0.472l0.191 1.114-1-0.526c-0.072-0.039-0.158-0.062-0.248-0.062s-0.177 0.023-0.251 0.063l0.003-0.001-1 0.526 0.191-1.114c0.005-0.027 0.008-0.058 0.008-0.090 0-0.15-0.061-0.285-0.161-0.382l-0.81-0.79 1.119-0.162c0.174-0.025 0.323-0.135 0.401-0.292l0.5-1.013 0.501 1.013c0.078 0.157 0.228 0.267 0.402 0.292l1.119 0.162-0.809 0.79zM26.134 20.522h-1.067v1.067h1.067v-1.067zM26.134 22.655h-1.067v1.067h1.067v-1.067z"></path>
<path fill="#4d5ae5" style="fill: var(--color3, #4d5ae5)" d="M27.2 21.589h-1.067v1.067h1.067v-1.067zM25.067 21.589h-1.067v1.067h1.067v-1.067zM22.4 26.389h-1.067v1.067h1.067v-1.067zM22.4 28.523h-1.067v1.067h1.067v-1.067zM23.467 27.456h-1.067v1.067h1.067v-1.067z"></path>
<path fill="#4d5ae5" style="fill: var(--color3, #4d5ae5)" d="M21.334 27.456h-1.067v1.067h1.067v-1.067zM16 24.256h-1.066v1.067h1.066v-1.067zM16 26.389h-1.066v1.067h1.066v-1.067zM17.067 25.323h-1.067v1.067h1.067v-1.067zM14.934 25.323h-1.067v1.067h1.067v-1.067zM5.867 6.122h-1.066v1.066h1.066v-1.066zM5.867 8.255h-1.066v1.067h1.066v-1.066zM6.933 7.189h-1.066v1.067h1.066v-1.067zM4.8 7.189h-1.067v1.067h1.067v-1.067z"></path>
<path fill="#2e2f42" style="fill: var(--color2, #2e2f42)" d="M24.715 14.159c-0.28-0.377-0.699-0.636-1.179-0.704l-0.009-0.001c-0.076-0.012-0.164-0.018-0.254-0.018-0.411 0-0.789 0.139-1.090 0.374l0.004-0.003-1.252 0.96-1.898 1.417-1.358-0.541c2.421-1.086 4.114-3.508 4.114-6.32 0-3.823-3.122-6.933-6.961-6.933s-6.962 3.11-6.962 6.933c0 1.386 0.414 2.674 1.12 3.758l-2.769-0.024c-0.008 0-0.015 0.005-0.024 0.005-0.053 0.002-0.104 0.012-0.155 0.030-0.013 0.005-0.026 0.008-0.038 0.014-0.006 0.002-0.013 0.003-0.019 0.007l-3.234 1.597-1.893 0.911c-0.024 0.011-0.045 0.023-0.064 0.036l0.001-0.001c-0.482 0.324-0.794 0.866-0.794 1.482 0 0.297 0.073 0.576 0.201 0.822l-0.005-0.010c0.22 0.429 0.595 0.745 1.056 0.89 0.161 0.053 0.345 0.083 0.537 0.083 0.308 0 0.598-0.078 0.851-0.216l-0.009 0.005 1.388-0.738 2.264-1.169 1.357-0.008-5.442 5.415c0 0.001-0.001 0.001-0.002 0.002l-1.339 1.333c-0.303 0.299-0.49 0.714-0.49 1.173 0 0.002 0 0.003 0 0.005v-0c0 0.445 0.173 0.863 0.49 1.178 0.325 0.323 0.752 0.485 1.179 0.485s0.855-0.162 1.18-0.485l1.314-1.308 1.74-1.3 0.901 0.897-3.102 3.088c-0.303 0.299-0.49 0.714-0.49 1.173 0 0.002 0 0.003 0 0.005v-0c0 0.445 0.174 0.863 0.49 1.179 0.325 0.323 0.752 0.485 1.18 0.485s0.855-0.162 1.18-0.485l3.482-3.466c0-0.001 0-0.002 0.001-0.002l1.010-1-0.004-0.003c0.007-0.006 0.015-0.009 0.022-0.015l5.166-5.658 3.471 0.494c0.020 0.003 0.044 0.004 0.068 0.004 0.070 0 0.137-0.014 0.198-0.039l-0.004 0.001c0.017-0.006 0.033-0.015 0.050-0.023 0.019-0.009 0.039-0.015 0.057-0.027l3.213-2.134c0.012-0.008 0.018-0.020 0.029-0.029 0.012-0.010 0.029-0.014 0.040-0.025l1.272-1.192c0.347-0.326 0.564-0.787 0.564-1.299 0-0.4-0.132-0.77-0.355-1.067l0.003 0.005zM2.13 17.77c-0.173 0.093-0.37 0.111-0.558 0.052-0.295-0.093-0.505-0.364-0.505-0.683 0-0.236 0.114-0.445 0.29-0.575l0.002-0.001 1.314-0.632 0.316 0.925 0.133 0.388-0.993 0.527zM5.628 15.943l-1.548 0.8-0.255-0.747-0.183-0.537 2.026-1-0.040 1.483zM20.727 9.322c0 0.918-0.219 1.785-0.599 2.559l-4.181-1.899c-0.043-0.575-0.342-1.073-0.782-1.384l-0.006-0.004 1.464-4.86c2.378 0.755 4.105 2.974 4.105 5.587zM8.938 9.322c0-3.235 2.644-5.867 5.894-5.867 0.253 0 0.5 0.022 0.745 0.053l-1.432 4.753c-0.019 0-0.037-0.005-0.057-0.005-0 0-0 0-0.001 0-1.032 0-1.869 0.835-1.872 1.866v0c0.003 1.031 0.84 1.867 1.872 1.867 0 0 0 0 0.001 0h-0c0.694 0 1.294-0.383 1.618-0.944l3.863 1.755c-1.075 1.447-2.795 2.39-4.736 2.39-3.25 0-5.895-2.633-5.895-5.867zM14.895 10.122c0 0.441-0.362 0.8-0.806 0.8-0.001 0-0.001 0-0.002 0-0.443 0-0.802-0.358-0.804-0.8v-0c0-0.441 0.361-0.8 0.806-0.8s0.806 0.359 0.806 0.8zM2.465 25.146c-0.11 0.108-0.261 0.175-0.428 0.175s-0.317-0.067-0.427-0.175l0 0c-0.109-0.108-0.176-0.257-0.176-0.422s0.067-0.315 0.176-0.422l0-0 0.962-0.959 0.851 0.848-0.958 0.955zM5.678 28.88c-0.11 0.109-0.261 0.176-0.428 0.176s-0.317-0.067-0.427-0.175l0 0c-0.109-0.108-0.176-0.257-0.176-0.422s0.067-0.315 0.176-0.422l0-0 0.963-0.959 0.851 0.848-0.96 0.955zM9.161 25.411l-0.002 0.001-1.765 1.76-0.851-0.848 1.763-1.756s0.001 0 0.002-0.001c0.040-0.040 0.065-0.088 0.090-0.135 0.007-0.014 0.020-0.026 0.026-0.040 0.017-0.041 0.019-0.085 0.025-0.129 0.004-0.024 0.014-0.047 0.014-0.073 0-0.035-0.012-0.070-0.020-0.105-0.007-0.032-0.007-0.065-0.018-0.096-0.020-0.050-0.055-0.095-0.091-0.137-0.010-0.012-0.014-0.027-0.025-0.038h-0.001l-0.001-0.002-1.607-1.6c-0.017-0.017-0.039-0.024-0.058-0.038-0.025-0.021-0.054-0.040-0.084-0.056l-0.003-0.001c-0.027-0.013-0.058-0.024-0.090-0.032l-0.003-0.001c-0.030-0.009-0.065-0.017-0.101-0.020l-0.002-0c-0.006-0-0.013-0-0.020-0-0.026 0-0.052 0.002-0.077 0.006l0.003-0c-0.039 0.004-0.074 0.011-0.108 0.021l0.004-0.001c-0.036 0.013-0.067 0.028-0.096 0.046l0.002-0.001c-0.020 0.011-0.043 0.015-0.061 0.029l-1.774 1.324-0.901-0.897 2.399-2.386 4.36 4.289-0.927 0.919zM15.979 18.394c-0.015-0.002-0.030 0.004-0.045 0.003-0.008-0-0.017-0.001-0.026-0.001-0.031 0-0.062 0.003-0.092 0.008l0.003-0c-0.070 0.011-0.132 0.035-0.187 0.069l0.002-0.001c-0.030 0.018-0.057 0.038-0.083 0.061-0.013 0.011-0.028 0.017-0.040 0.029l-4.698 5.146-4.328-4.257 2.833-2.818c0.096-0.097 0.156-0.23 0.156-0.377 0-0.295-0.239-0.534-0.534-0.534-0 0-0.001 0-0.001 0h0l-2.219 0.013 0.027-1.607 3.104 0.027c1.264 1.297 3.027 2.101 4.978 2.101 0.001 0 0.002 0 0.003 0h-0c0.438 0 0.864-0.045 1.279-0.122 0.040 0.032 0.079 0.064 0.13 0.085l2.409 0.96 0.152 0.758 0.178 0.885-3.003-0.427zM20.020 18.573l-0.314-1.558 1.447-1.080 0.947 1.257-2.080 1.381zM23.774 15.742l-0.838 0.785-0.931-1.236 0.831-0.637c0.155-0.12 0.351-0.168 0.543-0.143 0.194 0.027 0.364 0.128 0.48 0.284 0.217 0.292 0.18 0.699-0.085 0.947z"></path>
<path fill="#2e2f42" style="fill: var(--color2, #2e2f42)" d="M13.602 18.544l-2.143-2.134c-0.096-0.096-0.229-0.155-0.376-0.155s-0.28 0.059-0.376 0.155l-2.143 2.134c-0.097 0.097-0.156 0.231-0.156 0.378s0.060 0.281 0.156 0.378l-0-0 2.143 2.133c0.096 0.096 0.229 0.155 0.376 0.155s0.28-0.059 0.376-0.155l2.143-2.133c0.097-0.097 0.157-0.23 0.157-0.378s-0.060-0.282-0.157-0.378l-0-0zM11.083 20.303l-1.386-1.381 1.386-1.381 1.387 1.381-1.387 1.381zM17.164 5.071l-0.258 1.035c0.071 0.018 1.738 0.452 1.738 2.149h1.067c0-2.017-1.666-2.966-2.546-3.185zM19.711 9.322h-1.067v1.067h1.067v-1.067z"></path>
</symbol>
<symbol id="icon-our-team-linkedin" viewBox="0 0 32 32">
<path fill="#4d5ae5" style="fill: var(--color3, #4d5ae5)" d="M32 16c0 0.006 0 0.013 0 0.021 0 4.412-1.791 8.405-4.686 11.293l-0 0c-2.888 2.895-6.881 4.686-11.293 4.686-0.007 0-0.015 0-0.022 0h0.001c-0.006 0-0.013 0-0.021 0-4.412 0-8.405-1.791-11.293-4.686l-0-0c-2.895-2.888-4.686-6.881-4.686-11.293 0-0.007 0-0.015 0-0.022v0.001c0-0.006 0-0.013 0-0.020 0-4.412 1.791-8.405 4.686-11.293l0-0c2.888-2.895 6.881-4.686 11.293-4.686 0.007 0 0.014 0 0.021 0h-0.001c0.006 0 0.013 0 0.021 0 4.412 0 8.405 1.791 11.293 4.686l0 0c2.895 2.888 4.686 6.881 4.686 11.293 0 0.007 0 0.015 0 0.022v-0.001z"></path>
<path fill="#f4f4fd" style="fill: var(--color4, #f4f4fd)" d="M22.397 22.4h0.003v-4.696c0-2.296-0.494-4.066-3.179-4.066-1.29 0-2.157 0.709-2.51 1.38h-0.038v-1.166h-2.545v8.547h2.651v-4.232c0-1.114 0.211-2.19 1.59-2.19 1.36 0 1.38 1.271 1.38 2.262v4.16h2.648zM9.811 13.854h2.654v8.546h-2.654v-8.546zM11.137 9.6c-0.848 0-1.536 0.688-1.536 1.537s0.688 1.552 1.536 1.552c0.849 0 1.538-0.704 1.538-1.552s-0.69-1.537-1.538-1.537z"></path>
</symbol>
<symbol id="icon-our-team-facebook" viewBox="0 0 32 32">
<path fill="#4d5ae5" style="fill: var(--color3, #4d5ae5)" d="M32 16c0 0.006 0 0.013 0 0.021 0 4.412-1.791 8.405-4.686 11.293l-0 0c-2.888 2.895-6.881 4.686-11.293 4.686-0.007 0-0.015 0-0.022 0h0.001c-0.006 0-0.013 0-0.021 0-4.412 0-8.405-1.791-11.293-4.686l-0-0c-2.895-2.888-4.686-6.881-4.686-11.293 0-0.007 0-0.015 0-0.022v0.001c0-0.006 0-0.013 0-0.020 0-4.412 1.791-8.405 4.686-11.293l0-0c2.888-2.895 6.881-4.686 11.293-4.686 0.007 0 0.014 0 0.021 0h-0.001c0.006 0 0.013 0 0.021 0 4.412 0 8.405 1.791 11.293 4.686l0 0c2.895 2.888 4.686 6.881 4.686 11.293 0 0.007 0 0.015 0 0.022v-0.001z"></path>
<path fill="#f4f4fd" style="fill: var(--color4, #f4f4fd)" d="M18.132 11.725h1.168v-2.034c-0.495-0.058-1.069-0.091-1.651-0.091-0.018 0-0.036 0-0.054 0h0.003c-1.685 0-2.838 1.060-2.838 3.008v1.792h-1.859v2.275h1.859v5.725h2.279v-5.724h1.784l0.283-2.276h-2.068v-1.567c0.001-0.658 0.178-1.108 1.094-1.108z"></path>
</symbol>
<symbol id="icon-our-team-twitter" viewBox="0 0 32 32">
<path fill="#4d5ae5" style="fill: var(--color3, #4d5ae5)" d="M32 16c0 0.006 0 0.013 0 0.021 0 4.412-1.791 8.405-4.686 11.293l-0 0c-2.888 2.895-6.881 4.686-11.293 4.686-0.007 0-0.015 0-0.022 0h0.001c-0.006 0-0.013 0-0.021 0-4.412 0-8.405-1.791-11.293-4.686l-0-0c-2.895-2.888-4.686-6.881-4.686-11.293 0-0.007 0-0.015 0-0.022v0.001c0-0.006 0-0.013 0-0.020 0-4.412 1.791-8.405 4.686-11.293l0-0c2.888-2.895 6.881-4.686 11.293-4.686 0.007 0 0.014 0 0.021 0h-0.001c0.006 0 0.013 0 0.021 0 4.412 0 8.405 1.791 11.293 4.686l0 0c2.895 2.888 4.686 6.881 4.686 11.293 0 0.007 0 0.015 0 0.022v-0.001z"></path>
<path fill="#f4f4fd" style="fill: var(--color4, #f4f4fd)" d="M22.4 12.031c-0.44 0.197-0.95 0.343-1.485 0.412l-0.027 0.003c0.544-0.327 0.953-0.831 1.149-1.432l0.005-0.018c-0.479 0.289-1.037 0.509-1.63 0.63l-0.034 0.006c-0.48-0.512-1.16-0.83-1.915-0.83-1.449 0-2.624 1.175-2.624 2.624 0 0 0 0.001 0 0.001v-0c0 0.208 0.018 0.408 0.061 0.598-2.187-0.11-4.111-1.151-5.398-2.731l-0.011-0.014c-0.225 0.379-0.358 0.836-0.358 1.324 0 0.906 0.458 1.704 1.155 2.177l0.009 0.006c-0.437-0.012-0.844-0.13-1.199-0.33l0.013 0.007v0.029c0.002 1.266 0.895 2.322 2.085 2.575l0.017 0.003c-0.2 0.055-0.43 0.086-0.668 0.086-0.007 0-0.014-0-0.022-0h0.001c-0.012 0-0.027 0-0.041 0-0.161 0-0.319-0.016-0.471-0.048l0.015 0.003c0.349 1.049 1.309 1.798 2.449 1.828l0.003 0c-0.886 0.698-2.018 1.119-3.248 1.119-0.002 0-0.004 0-0.006 0h0c-0.215 0-0.422-0.010-0.628-0.036 1.13 0.738 2.515 1.178 4.002 1.178 0.008 0 0.017 0 0.025-0h-0.001c4.829 0 7.469-4 7.469-7.467 0-0.116-0.004-0.228-0.010-0.339 0.52-0.375 0.956-0.827 1.303-1.344l0.012-0.019z"></path>
</symbol>
<symbol id="icon-our-team-instagram" viewBox="0 0 32 32">
<path fill="#4d5ae5" style="fill: var(--color3, #4d5ae5)" d="M32 16c0 0.006 0 0.013 0 0.021 0 4.412-1.791 8.405-4.686 11.293l-0 0c-2.888 2.895-6.881 4.686-11.293 4.686-0.007 0-0.015 0-0.022 0h0.001c-0.006 0-0.013 0-0.021 0-4.412 0-8.405-1.791-11.293-4.686l-0-0c-2.895-2.888-4.686-6.881-4.686-11.293 0-0.007 0-0.015 0-0.022v0.001c0-0.006 0-0.013 0-0.020 0-4.412 1.791-8.405 4.686-11.293l0-0c2.888-2.895 6.881-4.686 11.293-4.686 0.007 0 0.014 0 0.021 0h-0.001c0.006 0 0.013 0 0.021 0 4.412 0 8.405 1.791 11.293 4.686l0 0c2.895 2.888 4.686 6.881 4.686 11.293 0 0.007 0 0.015 0 0.022v-0.001z"></path>
<path fill="#f4f4fd" style="fill: var(--color4, #f4f4fd)" d="M22.387 13.363c-0.030-0.68-0.14-1.148-0.298-1.553-0.169-0.445-0.421-0.824-0.739-1.135l-0.001-0.001c-0.312-0.316-0.69-0.567-1.111-0.729l-0.022-0.007c-0.408-0.158-0.872-0.268-1.552-0.298-0.686-0.032-0.904-0.040-2.641-0.040-1.738 0-1.956 0.008-2.638 0.038-0.68 0.030-1.147 0.14-1.552 0.298-0.445 0.169-0.824 0.421-1.135 0.739l-0.001 0.001c-0.317 0.312-0.568 0.69-0.73 1.111l-0.007 0.022c-0.158 0.408-0.267 0.872-0.298 1.552-0.032 0.686-0.040 0.904-0.040 2.641 0 1.738 0.008 1.956 0.038 2.638 0.030 0.68 0.14 1.148 0.298 1.553 0.162 0.43 0.415 0.815 0.74 1.135 0.32 0.325 0.708 0.578 1.133 0.738 0.408 0.158 0.872 0.268 1.553 0.298 0.682 0.030 0.9 0.038 2.638 0.038s1.955-0.008 2.638-0.038c0.68-0.030 1.148-0.14 1.553-0.298 0.863-0.34 1.533-1.010 1.865-1.851l0.008-0.022c0.158-0.408 0.268-0.872 0.298-1.553 0.030-0.682 0.038-0.9 0.038-2.638s-0.002-1.955-0.032-2.638zM21.235 18.589c-0.028 0.626-0.133 0.963-0.221 1.188-0.22 0.56-0.655 0.995-1.201 1.211l-0.014 0.005c-0.225 0.087-0.565 0.192-1.187 0.219-0.675 0.030-0.878 0.038-2.586 0.038s-1.913-0.008-2.586-0.038c-0.625-0.027-0.962-0.132-1.188-0.22-0.288-0.108-0.534-0.27-0.735-0.477l-0-0c-0.207-0.202-0.369-0.447-0.473-0.721l-0.005-0.014c-0.088-0.225-0.192-0.565-0.22-1.187-0.030-0.675-0.038-0.878-0.038-2.586s0.008-1.913 0.038-2.586c0.028-0.626 0.133-0.963 0.22-1.188 0.102-0.278 0.266-0.53 0.48-0.735 0.208-0.212 0.458-0.375 0.736-0.478 0.224-0.088 0.565-0.192 1.187-0.22 0.675-0.030 0.878-0.038 2.586-0.038 1.71 0 1.912 0.008 2.586 0.038 0.625 0.028 0.962 0.133 1.188 0.22 0.277 0.102 0.53 0.266 0.734 0.478 0.213 0.208 0.376 0.458 0.478 0.736 0.088 0.224 0.193 0.565 0.221 1.187 0.030 0.675 0.037 0.878 0.037 2.586s-0.007 1.907-0.037 2.582z"></path>
<path fill="#f4f4fd" style="fill: var(--color4, #f4f4fd)" d="M16.024 12.713c-1.785 0.041-3.216 1.497-3.216 3.288s1.431 3.247 3.213 3.288l0.004 0c1.785-0.041 3.216-1.497 3.216-3.288s-1.431-3.247-3.212-3.288l-0.004-0zM16.024 18.134c-1.178 0-2.134-0.955-2.134-2.134s0.955-2.134 2.134-2.134v0c1.178 0 2.134 0.955 2.134 2.134s-0.955 2.134-2.134 2.134v0zM20.21 12.583c0 0.424-0.344 0.768-0.768 0.768s-0.768-0.344-0.768-0.768v0c0-0.424 0.344-0.768 0.768-0.768s0.768 0.344 0.768 0.768v0z"></path>
</symbol>
<symbol id="icon-social-media-instagram" viewBox="0 0 32 32">
<path fill="#fff" style="fill: var(--color5, #fff)" opacity="0.1" d="M32 16c0 0.006 0 0.013 0 0.021 0 4.412-1.791 8.405-4.686 11.293l-0 0c-2.888 2.895-6.881 4.686-11.293 4.686-0.007 0-0.015 0-0.022 0h0.001c-0.006 0-0.013 0-0.021 0-4.412 0-8.405-1.791-11.293-4.686l-0-0c-2.895-2.888-4.686-6.881-4.686-11.293 0-0.007 0-0.015 0-0.022v0.001c0-0.006 0-0.013 0-0.020 0-4.412 1.791-8.405 4.686-11.293l0-0c2.888-2.895 6.881-4.686 11.293-4.686 0.007 0 0.014 0 0.021 0h-0.001c0.006 0 0.013 0 0.021 0 4.412 0 8.405 1.791 11.293 4.686l0 0c2.895 2.888 4.686 6.881 4.686 11.293 0 0.007 0 0.015 0 0.022v-0.001z"></path>
<path fill="#f4f4fd" style="fill: var(--color4, #f4f4fd)" d="M25.582 12.045c-0.046-1.020-0.21-1.722-0.446-2.329-0.254-0.667-0.632-1.235-1.11-1.702l-0.001-0.001c-0.468-0.475-1.035-0.851-1.667-1.095l-0.032-0.011c-0.611-0.236-1.309-0.402-2.33-0.446-1.027-0.048-1.354-0.060-3.96-0.060s-2.934 0.011-3.958 0.056c-1.020 0.046-1.722 0.21-2.329 0.446-0.667 0.254-1.235 0.632-1.702 1.11l-0.001 0.001c-0.475 0.468-0.851 1.035-1.095 1.667l-0.011 0.032c-0.236 0.611-0.402 1.309-0.446 2.329-0.048 1.028-0.060 1.354-0.060 3.961s0.011 2.934 0.056 3.958c0.046 1.020 0.21 1.721 0.447 2.329 0.256 0.666 0.633 1.234 1.109 1.703l0.001 0.001c0.48 0.488 1.062 0.866 1.699 1.106 0.611 0.236 1.309 0.401 2.33 0.446 1.024 0.045 1.35 0.056 3.957 0.056s2.933-0.011 3.957-0.056c1.020-0.046 1.722-0.21 2.33-0.446 1.294-0.51 2.299-1.515 2.797-2.776l0.012-0.033c0.237-0.611 0.402-1.309 0.446-2.329 0.045-1.024 0.056-1.35 0.056-3.958s-0.003-2.933-0.048-3.957zM23.852 19.884c-0.041 0.938-0.198 1.444-0.33 1.782-0.331 0.84-0.983 1.492-1.802 1.815l-0.022 0.008c-0.338 0.132-0.848 0.289-1.782 0.33-1.013 0.045-1.316 0.056-3.878 0.056s-2.869-0.011-3.878-0.056c-0.938-0.042-1.444-0.198-1.782-0.33-0.432-0.161-0.801-0.405-1.102-0.715l-0.001-0.001c-0.31-0.302-0.554-0.67-0.71-1.082l-0.007-0.021c-0.131-0.338-0.288-0.848-0.33-1.782-0.045-1.013-0.056-1.317-0.056-3.878s0.011-2.87 0.056-3.878c0.041-0.938 0.198-1.444 0.33-1.782 0.154-0.416 0.398-0.795 0.72-1.103 0.303-0.31 0.671-0.554 1.083-0.709l0.021-0.007c0.337-0.131 0.847-0.288 1.781-0.33 1.013-0.045 1.317-0.056 3.878-0.056 2.566 0 2.87 0.011 3.878 0.056 0.938 0.042 1.444 0.199 1.782 0.33 0.416 0.154 0.795 0.398 1.102 0.716 0.319 0.312 0.562 0.686 0.717 1.103 0.131 0.338 0.288 0.848 0.33 1.782 0.045 1.013 0.056 1.317 0.056 3.878s-0.011 2.862-0.056 3.874z"></path>
<path fill="#f4f4fd" style="fill: var(--color4, #f4f4fd)" d="M16.035 11.070c-2.723 0.001-4.931 2.209-4.932 4.932v0c0 2.724 2.208 4.932 4.932 4.933h0c2.724-0 4.932-2.209 4.933-4.933v-0c-0.001-2.724-2.209-4.932-4.933-4.932h-0zM16.035 19.202c-1.767-0-3.199-1.433-3.199-3.2s1.433-3.2 3.2-3.2c0 0 0.001 0 0.001 0h-0c1.767 0 3.199 1.433 3.199 3.2s-1.433 3.2-3.2 3.2c-0 0-0.001 0-0.001 0h0zM22.314 10.874c0 0.009 0 0.020 0 0.030 0 0.636-0.516 1.152-1.152 1.152s-1.152-0.516-1.152-1.152c0-0.011 0-0.021 0-0.032l-0 0.002c0.017-0.623 0.526-1.122 1.152-1.122s1.135 0.499 1.152 1.12l0 0.002z"></path>
</symbol>
<symbol id="icon-social-media-twitter" viewBox="0 0 32 32">
<path fill="#fff" style="fill: var(--color5, #fff)" opacity="0.1" d="M32 16c0 0.006 0 0.013 0 0.021 0 4.412-1.791 8.405-4.686 11.293l-0 0c-2.888 2.895-6.881 4.686-11.293 4.686-0.007 0-0.015 0-0.022 0h0.001c-0.006 0-0.013 0-0.021 0-4.412 0-8.405-1.791-11.293-4.686l-0-0c-2.895-2.888-4.686-6.881-4.686-11.293 0-0.007 0-0.015 0-0.022v0.001c0-0.006 0-0.013 0-0.020 0-4.412 1.791-8.405 4.686-11.293l0-0c2.888-2.895 6.881-4.686 11.293-4.686 0.007 0 0.014 0 0.021 0h-0.001c0.006 0 0.013 0 0.021 0 4.412 0 8.405 1.791 11.293 4.686l0 0c2.895 2.888 4.686 6.881 4.686 11.293 0 0.007 0 0.015 0 0.022v-0.001z"></path>
<path fill="#f4f4fd" style="fill: var(--color4, #f4f4fd)" d="M25.6 10.047c-0.714 0.313-1.474 0.52-2.268 0.622 0.816-0.49 1.429-1.247 1.724-2.148l0.008-0.028c-0.718 0.434-1.555 0.764-2.446 0.944l-0.050 0.008c-0.72-0.768-1.741-1.247-2.874-1.247-2.173 0-3.935 1.762-3.935 3.935 0 0.001 0 0.002 0 0.003v-0c0 0.312 0.026 0.613 0.091 0.898-3.273-0.16-6.168-1.728-8.114-4.118-0.338 0.57-0.537 1.256-0.538 1.989v0c0 1.363 0.702 2.572 1.748 3.271-0.655-0.018-1.265-0.196-1.798-0.495l0.020 0.010v0.043c0.002 1.899 1.342 3.484 3.128 3.863l0.026 0.005c-0.32 0.087-0.67 0.13-1.032 0.13-0.018 0-0.040 0.001-0.062 0.001-0.242 0-0.478-0.025-0.706-0.072l0.023 0.004c0.51 1.558 1.957 2.704 3.678 2.742-1.329 1.047-3.027 1.679-4.872 1.679-0.003 0-0.005 0-0.008 0h0c-0.323 0-0.633-0.014-0.942-0.054 1.696 1.108 3.772 1.766 6.003 1.766 0.013 0 0.025-0 0.038-0h-0.002c7.243 0 11.203-6 11.203-11.201 0-0.174-0.006-0.342-0.014-0.509 0.779-0.562 1.434-1.24 1.955-2.015l0.018-0.028z"></path>
</symbol>
<symbol id="icon-social-media-facebook" viewBox="0 0 32 32">
<path fill="#fff" style="fill: var(--color5, #fff)" opacity="0.1" d="M32 16c0 0.006 0 0.013 0 0.021 0 4.412-1.791 8.405-4.686 11.293l-0 0c-2.888 2.895-6.881 4.686-11.293 4.686-0.007 0-0.015 0-0.022 0h0.001c-0.006 0-0.013 0-0.021 0-4.412 0-8.405-1.791-11.293-4.686l-0-0c-2.895-2.888-4.686-6.881-4.686-11.293 0-0.007 0-0.015 0-0.022v0.001c0-0.006 0-0.013 0-0.020 0-4.412 1.791-8.405 4.686-11.293l0-0c2.888-2.895 6.881-4.686 11.293-4.686 0.007 0 0.014 0 0.021 0h-0.001c0.006 0 0.013 0 0.021 0 4.412 0 8.405 1.791 11.293 4.686l0 0c2.895 2.888 4.686 6.881 4.686 11.293 0 0.007 0 0.015 0 0.022v-0.001z"></path>
<path fill="#f4f4fd" style="fill: var(--color4, #f4f4fd)" d="M19.198 9.588h1.753v-3.053c-0.302-0.042-1.342-0.135-2.554-0.135-2.527 0-4.258 1.59-4.258 4.511v2.689h-2.789v3.413h2.789v8.587h3.419v-8.586h2.676l0.425-3.413h-3.102v-2.351c0.001-0.986 0.266-1.662 1.641-1.662z"></path>
</symbol>
<symbol id="icon-social-media-linkedin" viewBox="0 0 32 32">
<path fill="#fff" style="fill: var(--color5, #fff)" opacity="0.1" d="M32 16c0 0.006 0 0.013 0 0.021 0 4.412-1.791 8.405-4.686 11.293l-0 0c-2.888 2.895-6.881 4.686-11.293 4.686-0.007 0-0.015 0-0.022 0h0.001c-0.006 0-0.013 0-0.021 0-4.412 0-8.405-1.791-11.293-4.686l-0-0c-2.895-2.888-4.686-6.881-4.686-11.293 0-0.007 0-0.015 0-0.022v0.001c0-0.006 0-0.013 0-0.020 0-4.412 1.791-8.405 4.686-11.293l0-0c2.888-2.895 6.881-4.686 11.293-4.686 0.007 0 0.014 0 0.021 0h-0.001c0.006 0 0.013 0 0.021 0 4.412 0 8.405 1.791 11.293 4.686l0 0c2.895 2.888 4.686 6.881 4.686 11.293 0 0.007 0 0.015 0 0.022v-0.001z"></path>
<path fill="#f4f4fd" style="fill: var(--color4, #f4f4fd)" d="M25.595 25.6h0.005v-7.042c0-3.445-0.742-6.098-4.769-6.098-1.936 0-3.235 1.062-3.766 2.070h-0.056v-1.748h-3.818v12.819h3.976v-6.347c0-1.671 0.317-3.287 2.386-3.287 2.039 0 2.070 1.907 2.070 3.394v6.24h3.972zM6.717 12.782h3.981v12.818h-3.981v-12.818zM8.706 6.4c-1.273 0-2.305 1.032-2.306 2.306v0c0 1.273 1.033 2.327 2.306 2.327s2.306-1.054 2.306-2.327c-0.001-1.273-1.033-2.305-2.306-2.306h-0z"></path>
</symbol>
<symbol id="icon-contact-mobile" viewBox="0 0 32 32">
<path d="M23 0h-14c-1.65 0-3 1.35-3 3v26c0 1.65 1.35 3 3 3h14c1.65 0 3-1.35 3-3v-26c0-1.65-1.35-3-3-3zM12 1.5h8v1h-8v-1zM16 30c-1.105 0-2-0.895-2-2s0.895-2 2-2 2 0.895 2 2-0.895 2-2 2zM24 24h-16v-20h16v20z"></path>
</symbol>
<symbol id="icon-contact-mail" viewBox="0 0 32 32">
<path d="M26.667 0h-21.333c-2.934 0-5.334 2.4-5.334 5.334v21.332c0 2.936 2.4 5.334 5.334 5.334h21.333c2.934 0 5.333-2.398 5.333-5.334v-21.332c0-2.934-2.399-5.334-5.333-5.334zM26.667 4c0.25 0 0.486 0.073 0.688 0.198l-11.355 9.388-11.355-9.387c0.202-0.125 0.439-0.198 0.689-0.198h21.333zM5.334 28c-0.060 0-0.119-0.005-0.178-0.013l7.051-9.78-0.914-0.914-7.293 7.293v-19.098l12 14.512 12-14.512v19.098l-7.293-7.293-0.914 0.914 7.051 9.78c-0.058 0.008-0.117 0.013-0.177 0.013h-21.333z"></path>
</symbol>
</defs>
</svg>
